<svg width="16" height="16" viewBox="0 0 16 16" fill="none" xmlns="http://www.w3.org/2000/svg">
<g clip-path="url(#clip0_6109_12418)">
<path d="M11.1799 5.61255C11.1839 5.69352 11.1892 5.77392 11.1951 5.85417C11.1941 6.07567 11.2145 6.30273 11.2309 6.52033C11.2402 6.64317 11.327 6.74511 11.457 6.74639C12.4827 6.75655 13.5082 6.72014 14.5339 6.71817C14.6533 6.71795 14.749 6.61867 14.7514 6.50067C14.7578 6.19111 14.7546 5.88173 14.7506 5.5722C14.7491 5.4562 14.6526 5.35399 14.5339 5.35549C13.4822 5.36895 12.4313 5.40242 11.3795 5.41289C11.2756 5.41395 11.1745 5.50361 11.1799 5.61255Z" fill="black"/>
<path d="M15.7171 3.29355C12.2364 3.27948 8.75602 3.25795 5.27517 3.26414C4.78061 3.26501 4.28602 3.27195 3.79149 3.27655C3.3377 3.28076 2.88364 3.27667 2.43077 3.30467C2.44252 2.68448 2.45767 2.06439 2.46964 1.44476C2.47233 1.30564 2.33883 1.14895 2.19011 1.16523C1.73555 1.21492 1.27964 1.26814 0.868705 1.48389C0.509736 1.6723 0.219705 1.98273 0.101392 2.37467C-0.0341704 2.82376 0.0224233 3.33776 0.0205796 3.80033C0.0186421 4.28605 0.0167671 4.7718 0.0148608 5.25751C0.00767333 7.0888 -0.0194204 8.91942 0.0244858 10.7505C0.0361108 11.2351 0.0497671 11.7198 0.0577046 12.2046C0.0654233 12.6758 0.0493296 13.1479 0.0837046 13.618C0.0854546 13.642 0.125673 14.2369 0.599767 14.5702C0.998705 14.8508 1.55208 14.8268 2.01611 14.8271C3.1053 14.8279 4.19445 14.8384 5.28361 14.8355C7.48264 14.8297 9.68164 14.8325 11.8807 14.8299C13.11 14.8285 14.3395 14.8173 15.5689 14.8203C15.5784 14.8203 15.5875 14.8198 15.5965 14.819C15.7364 14.819 15.8925 14.7575 15.8951 14.5749C15.936 11.7033 15.9566 8.8313 15.9848 5.95948C15.9926 5.16514 15.9959 4.37076 16 3.57639C16.0008 3.42305 15.8698 3.29417 15.7171 3.29355ZM0.55658 11.2016C0.55308 10.3824 0.543392 9.5632 0.539517 8.74398C0.530798 6.90633 0.547861 5.06767 0.567048 3.23011C0.571423 2.81008 0.575048 2.38786 0.933705 2.10605C1.20855 1.89008 1.56305 1.81026 1.90939 1.76055C1.90336 3.08576 1.91064 4.41239 1.90642 5.73801C1.90195 7.14105 1.87852 8.54389 1.87655 9.94698C1.87558 10.6321 1.87595 11.3173 1.87742 12.0025C1.39805 11.9485 0.908111 12.059 0.561173 12.3964C0.557392 11.9982 0.558267 11.5999 0.55658 11.2016ZM15.3894 12.1919C15.3867 12.8942 15.3847 13.5965 15.3839 14.2988C11.2665 14.3227 7.14867 14.317 3.0313 14.3355C2.7352 14.3368 2.43911 14.338 2.14305 14.3393C1.87058 14.3405 1.59086 14.3561 1.32005 14.3188C0.737736 14.2385 0.513017 13.7826 0.594923 13.3577C0.63008 13.1753 0.71158 12.9986 0.827798 12.8537C1.12827 12.4791 1.65658 12.4696 2.08174 12.6066C2.25411 12.6621 2.43367 12.5132 2.43286 12.3391C2.4198 9.52264 2.38052 6.70592 2.42089 3.88958C2.42161 3.83976 2.42264 3.78998 2.42342 3.74017C3.25767 3.79705 4.1018 3.77333 4.93717 3.7837C5.8103 3.79455 6.68358 3.79664 7.55674 3.80339C9.27774 3.8167 10.9987 3.82873 12.7197 3.84201C13.6237 3.84898 14.5278 3.85076 15.4318 3.85736C15.4062 6.63545 15.4001 9.4137 15.3894 12.1919Z" fill="black"/>
<path d="M9.04939 9.34216C9.04939 9.34178 9.04939 9.34141 9.04936 9.34103C9.0497 9.07969 9.04892 8.81856 9.05064 8.55822C9.05208 8.3415 9.05417 8.12481 9.05417 7.90809C9.05417 7.59947 8.95101 7.54956 8.7297 7.35784C8.32979 7.01144 7.93167 6.66309 7.53367 6.31453C7.09308 5.92866 6.65167 5.54347 6.19851 5.17234C6.15739 5.13869 6.11286 5.12275 6.0692 5.12009C6.01051 5.1105 5.94704 5.12384 5.89042 5.17234C5.11236 5.83912 4.37001 6.54638 3.60967 7.233C3.45345 7.37406 3.16464 7.54166 3.15839 7.76691C3.15261 7.97519 3.16023 8.18481 3.16161 8.39319C3.16467 8.86494 3.16458 9.33697 3.17323 9.80866C3.18036 10.1964 3.18679 10.5828 3.21567 10.9686C3.22001 11.2343 3.22808 11.5 3.22808 11.7658C3.22808 11.8884 3.30795 11.9338 3.34848 11.9438C3.79426 12.0539 4.2892 12.0186 4.74739 12.0181C5.21736 12.0176 5.68723 12.0203 6.1572 12.0218C6.61808 12.0233 7.07892 12.0267 7.53979 12.0298C7.76383 12.0313 7.98786 12.0329 8.21186 12.0344C8.45114 12.036 8.69939 12.0528 8.93545 12.0096C9.01829 11.9944 9.08895 11.9048 9.08895 11.7658C9.08895 11.2322 9.07139 10.6988 9.06286 10.1652C9.05848 9.89091 9.05714 9.61634 9.04939 9.34216ZM8.24245 11.6088C8.01842 11.6097 7.79439 11.6105 7.57039 11.6113C7.44023 11.6118 7.31008 11.6123 7.17992 11.6128C7.21073 11.2203 7.19145 10.818 7.19458 10.427C7.19836 9.95525 7.20658 9.48331 7.20448 9.01159C7.20389 8.87825 7.08936 8.75513 6.95217 8.75928C6.33442 8.77794 5.71673 8.79759 5.09904 8.81788C4.97904 8.82181 4.8692 8.9185 4.87245 9.04447C4.88458 9.51303 4.89117 9.9815 4.89714 10.4502C4.90008 10.6794 4.90439 10.9083 4.91173 11.1374C4.91667 11.2917 4.91011 11.4574 4.93129 11.6151C4.88058 11.615 4.82986 11.6151 4.77914 11.6149C4.39486 11.6134 4.00095 11.6159 3.59786 11.5997C3.58539 11.1161 3.54664 8.28184 3.55514 7.81959C4.39776 7.09603 5.20311 6.33006 6.04798 5.60906C6.93211 6.33012 7.77704 7.09787 8.65898 7.82156C8.66958 8.39091 8.67736 8.96031 8.68529 9.52972C8.68936 9.82116 8.69351 10.1129 8.70548 10.4041C8.70567 10.8063 8.7092 11.2085 8.71417 11.6107C8.55717 11.6018 8.39786 11.6082 8.24245 11.6088Z" fill="black"/>
<path d="M9.96766 5.31718C9.78641 5.31771 9.56735 5.3239 9.42544 5.44853C9.38963 5.47996 9.39579 5.55399 9.44166 5.57428C9.5971 5.64303 9.77785 5.6194 9.94582 5.62524C9.88897 6.09606 9.8946 6.57615 9.87985 7.04921C9.86344 7.57621 9.85025 8.10337 9.84285 8.63059C9.83544 9.15771 9.82763 9.68478 9.82532 10.212C9.82319 10.6982 9.79969 11.188 9.81291 11.6745C9.70544 11.6794 9.59194 11.6948 9.50816 11.7552C9.47007 11.7827 9.44557 11.8492 9.49141 11.8852C9.60219 11.9721 9.74669 11.9864 9.88419 11.9955C10.0299 12.0051 10.1941 12.0385 10.308 11.9305C10.3583 11.8829 10.3547 11.7996 10.308 11.7513C10.2503 11.6917 10.1748 11.6733 10.0954 11.6691C10.1239 11.185 10.1164 10.6964 10.13 10.212C10.1444 9.69546 10.1536 9.17887 10.1631 8.66224C10.1725 8.14574 10.1771 7.62909 10.1778 7.11249C10.1783 6.62809 10.2029 6.1349 10.1605 5.65112C10.2819 5.67053 10.403 5.68631 10.515 5.63809C10.593 5.60453 10.5909 5.49196 10.5406 5.43915C10.4094 5.30121 10.1466 5.31662 9.96766 5.31718Z" fill="black"/>
<path d="M8.84694 12.3539C8.80769 12.2867 8.70406 12.2846 8.66531 12.3539C8.60753 12.4573 8.59628 12.5844 8.59456 12.7094C8.18059 12.6746 7.74772 12.7143 7.33394 12.7194C6.89091 12.7248 6.44797 12.718 6.00497 12.7236C5.57253 12.7291 5.14009 12.7339 4.70763 12.7367C4.48609 12.7381 4.26463 12.7427 4.04313 12.7478C3.89134 12.7512 3.72516 12.7478 3.56881 12.7717C3.57844 12.6556 3.59403 12.538 3.57959 12.4255C3.56216 12.2895 3.42081 12.2987 3.37091 12.3696C3.37075 12.3693 3.37063 12.3691 3.37047 12.3688C3.27578 12.5224 3.26278 12.7296 3.25481 12.9067C3.24663 13.0879 3.23869 13.2987 3.32322 13.4629C3.39644 13.6051 3.57588 13.517 3.59269 13.3899C3.607 13.2816 3.58738 13.1676 3.57369 13.0548C3.71872 13.0734 3.871 13.0692 4.01153 13.0697C4.23303 13.0707 4.45456 13.0709 4.67603 13.0679C5.11903 13.0618 5.562 13.0576 6.005 13.0543C6.43756 13.051 6.86978 13.0353 7.30234 13.0318C7.72497 13.0285 8.16813 13.0602 8.59025 13.0166C8.58447 13.1607 8.58422 13.3073 8.67916 13.4206C8.71816 13.4671 8.81216 13.4685 8.85069 13.4206C8.96878 13.2736 8.93369 13.0809 8.92731 12.9018C8.92103 12.7264 8.93778 12.5095 8.84694 12.3539Z" fill="black"/>
<path d="M14.322 7.58775C14.107 7.48915 13.8513 7.48525 13.6182 7.46884C13.3627 7.45084 13.1054 7.44631 12.8493 7.45337C12.6032 7.46018 12.3567 7.47281 12.1119 7.49968C11.8713 7.52609 11.6126 7.54403 11.3944 7.65668C11.3284 7.69075 11.3412 7.80431 11.4156 7.8194C11.6434 7.86559 11.8821 7.82981 12.1119 7.81793C12.3576 7.80525 12.6033 7.79428 12.8493 7.79337C13.0955 7.7925 13.3415 7.79703 13.5875 7.80575C13.8178 7.8139 14.0669 7.8544 14.2936 7.80453C14.3882 7.78371 14.4149 7.63034 14.322 7.58775Z" fill="black"/>
<path d="M13.5469 8.66917C13.3942 8.59151 13.2213 8.58726 13.0531 8.57501C12.8567 8.5607 12.6589 8.55754 12.4622 8.5632C12.2756 8.56857 12.0887 8.57717 11.903 8.59704C11.7292 8.61567 11.5478 8.62907 11.3944 8.71967C11.3263 8.75988 11.3439 8.85901 11.4157 8.88238C11.5722 8.93342 11.7408 8.91745 11.903 8.91326C12.0894 8.90845 12.2757 8.90235 12.4622 8.90317C12.6385 8.90395 12.8147 8.90642 12.9909 8.90992C13.1644 8.91335 13.351 8.9382 13.5186 8.88592C13.6103 8.85729 13.6419 8.71748 13.5469 8.66917Z" fill="black"/>
</g>
<defs>
<clipPath id="clip0_6109_12418">
<rect width="16" height="16" fill="white"/>
</clipPath>
</defs>
</svg>
