<svg width="501" height="500" viewBox="0 0 501 500" fill="none" xmlns="http://www.w3.org/2000/svg">
<path d="M455.273 190.214H369.673C369.673 190.214 378.16 167.032 391.222 167.032C404.284 167.032 408.376 183.033 408.376 183.033C408.376 183.033 417.189 174.339 424.428 174.339C431.667 174.339 437.962 185.827 437.962 185.827C437.962 185.827 448.191 179.65 455.273 190.214Z" fill="#EBEBEB"/>
<path d="M389.674 99.4219H349.671C349.671 99.4219 358.61 86.4709 365.652 86.4709C372.694 86.4709 374.775 95.1049 374.775 95.1049C374.775 95.1049 379.745 91.0759 384.35 91.7949C388.955 92.5149 389.674 99.4219 389.674 99.4219Z" fill="#EBEBEB"/>
<path d="M123.773 158.464H45.8545C45.8545 158.464 56.5245 134.642 67.9395 133.153C79.3545 131.664 84.8135 150.854 84.8135 150.854C84.8135 150.854 92.1755 144.071 97.9655 144.071C103.755 144.071 108.222 153.004 108.222 153.004C108.222 153.004 119.803 146.883 123.773 158.464Z" fill="#EBEBEB"/>
<path d="M180.492 69.4659H127.856C127.856 69.4659 136.898 52.2059 146.706 51.9549C156.515 51.7039 161.671 65.0169 161.671 65.0169C161.671 65.0169 176.929 52.7719 180.492 69.4659Z" fill="#EBEBEB"/>
<path d="M154.174 188.664H118.647C118.647 188.664 124.75 177.014 131.37 176.845C137.991 176.675 141.471 185.662 141.471 185.662C141.471 185.662 151.769 177.397 154.174 188.664Z" fill="#EBEBEB"/>
<path d="M360.944 207.758H317.612V434.903H360.944V207.758Z" fill="#DBDBDB"/>
<path d="M332.761 215.136H324.338V223.809H332.761V215.136Z" fill="#EBEBEB"/>
<path d="M343.536 215.136H335.113V223.809H343.536V215.136Z" fill="#EBEBEB"/>
<path d="M332.761 229.861H324.338V238.534H332.761V229.861Z" fill="#EBEBEB"/>
<path d="M343.536 229.861H335.113V238.534H343.536V229.861Z" fill="#EBEBEB"/>
<path d="M332.761 244.586H324.338V253.259H332.761V244.586Z" fill="#EBEBEB"/>
<path d="M343.536 244.586H335.113V253.259H343.536V244.586Z" fill="#EBEBEB"/>
<path d="M332.761 259.311H324.338V267.984H332.761V259.311Z" fill="#EBEBEB"/>
<path d="M343.536 259.311H335.113V267.984H343.536V259.311Z" fill="#EBEBEB"/>
<path d="M332.761 274.036H324.338V282.709H332.761V274.036Z" fill="#EBEBEB"/>
<path d="M343.536 274.036H335.113V282.709H343.536V274.036Z" fill="#EBEBEB"/>
<path d="M332.761 288.761H324.338V297.434H332.761V288.761Z" fill="#EBEBEB"/>
<path d="M343.536 288.761H335.113V297.434H343.536V288.761Z" fill="#EBEBEB"/>
<path d="M332.761 303.486H324.338V312.159H332.761V303.486Z" fill="#EBEBEB"/>
<path d="M343.536 303.486H335.113V312.159H343.536V303.486Z" fill="#EBEBEB"/>
<path d="M332.761 318.211H324.338V326.884H332.761V318.211Z" fill="#EBEBEB"/>
<path d="M343.536 318.211H335.113V326.884H343.536V318.211Z" fill="#EBEBEB"/>
<path d="M332.761 332.936H324.338V341.609H332.761V332.936Z" fill="#EBEBEB"/>
<path d="M343.536 332.936H335.113V341.609H343.536V332.936Z" fill="#EBEBEB"/>
<path d="M332.761 347.661H324.338V356.334H332.761V347.661Z" fill="#EBEBEB"/>
<path d="M343.536 347.661H335.113V356.334H343.536V347.661Z" fill="#EBEBEB"/>
<path d="M332.761 362.386H324.338V371.059H332.761V362.386Z" fill="#EBEBEB"/>
<path d="M343.536 362.386H335.113V371.059H343.536V362.386Z" fill="#EBEBEB"/>
<path d="M332.761 377.111H324.338V385.784H332.761V377.111Z" fill="#EBEBEB"/>
<path d="M343.536 377.111H335.113V385.784H343.536V377.111Z" fill="#EBEBEB"/>
<path d="M332.761 391.836H324.338V400.509H332.761V391.836Z" fill="#EBEBEB"/>
<path d="M343.536 391.836H335.113V400.509H343.536V391.836Z" fill="#EBEBEB"/>
<path d="M332.761 406.561H324.338V415.234H332.761V406.561Z" fill="#EBEBEB"/>
<path d="M345.796 415.233H354.219V406.56H345.796V415.233Z" fill="#EBEBEB"/>
<path d="M345.796 400.509H354.219V391.836H345.796V400.509Z" fill="#EBEBEB"/>
<path d="M345.796 385.783H354.219V377.11H345.796V385.783Z" fill="#EBEBEB"/>
<path d="M345.796 371.059H354.219V362.386H345.796V371.059Z" fill="#EBEBEB"/>
<path d="M345.796 356.333H354.219V347.66H345.796V356.333Z" fill="#EBEBEB"/>
<path d="M345.796 341.609H354.219V332.936H345.796V341.609Z" fill="#EBEBEB"/>
<path d="M345.796 326.884H354.219V318.211H345.796V326.884Z" fill="#EBEBEB"/>
<path d="M345.796 312.158H354.219V303.485H345.796V312.158Z" fill="#EBEBEB"/>
<path d="M345.796 297.434H354.219V288.761H345.796V297.434Z" fill="#EBEBEB"/>
<path d="M345.796 282.709H354.219V274.036H345.796V282.709Z" fill="#EBEBEB"/>
<path d="M345.796 267.984H354.219V259.311H345.796V267.984Z" fill="#EBEBEB"/>
<path d="M345.796 253.259H354.219V244.586H345.796V253.259Z" fill="#EBEBEB"/>
<path d="M345.796 238.534H354.219V229.861H345.796V238.534Z" fill="#EBEBEB"/>
<path d="M345.796 223.809H354.219V215.136H345.796V223.809Z" fill="#EBEBEB"/>
<path d="M343.536 406.561H335.113V415.234H343.536V406.561Z" fill="#EBEBEB"/>
<path d="M395.108 207.758H360.944V434.903H395.108V207.758Z" fill="#727272"/>
<path d="M384.631 415.233H391.587V406.56H384.631V415.233Z" fill="#C7C7C7"/>
<path d="M375.732 415.233H382.688V406.56H375.732V415.233Z" fill="#C7C7C7"/>
<path d="M384.631 400.509H391.587V391.836H384.631V400.509Z" fill="#C7C7C7"/>
<path d="M375.732 400.509H382.688V391.836H375.732V400.509Z" fill="#C7C7C7"/>
<path d="M384.631 385.783H391.587V377.11H384.631V385.783Z" fill="#C7C7C7"/>
<path d="M375.732 385.783H382.688V377.11H375.732V385.783Z" fill="#C7C7C7"/>
<path d="M384.631 371.059H391.587V362.386H384.631V371.059Z" fill="#C7C7C7"/>
<path d="M375.732 371.059H382.688V362.386H375.732V371.059Z" fill="#C7C7C7"/>
<path d="M384.631 356.333H391.587V347.66H384.631V356.333Z" fill="#C7C7C7"/>
<path d="M375.732 356.333H382.688V347.66H375.732V356.333Z" fill="#C7C7C7"/>
<path d="M384.631 341.609H391.587V332.936H384.631V341.609Z" fill="#C7C7C7"/>
<path d="M375.732 341.609H382.688V332.936H375.732V341.609Z" fill="#C7C7C7"/>
<path d="M384.631 326.884H391.587V318.211H384.631V326.884Z" fill="#C7C7C7"/>
<path d="M375.732 326.884H382.688V318.211H375.732V326.884Z" fill="#C7C7C7"/>
<path d="M384.631 312.158H391.587V303.485H384.631V312.158Z" fill="#C7C7C7"/>
<path d="M375.732 312.158H382.688V303.485H375.732V312.158Z" fill="#C7C7C7"/>
<path d="M384.631 297.434H391.587V288.761H384.631V297.434Z" fill="#C7C7C7"/>
<path d="M375.732 297.434H382.688V288.761H375.732V297.434Z" fill="#C7C7C7"/>
<path d="M384.631 282.709H391.587V274.036H384.631V282.709Z" fill="#C7C7C7"/>
<path d="M375.732 282.709H382.688V274.036H375.732V282.709Z" fill="#C7C7C7"/>
<path d="M384.631 267.984H391.587V259.311H384.631V267.984Z" fill="#C7C7C7"/>
<path d="M375.732 267.984H382.688V259.311H375.732V267.984Z" fill="#C7C7C7"/>
<path d="M384.631 253.259H391.587V244.586H384.631V253.259Z" fill="#C7C7C7"/>
<path d="M375.732 253.259H382.688V244.586H375.732V253.259Z" fill="#C7C7C7"/>
<path d="M384.631 238.534H391.587V229.861H384.631V238.534Z" fill="#C7C7C7"/>
<path d="M375.732 238.534H382.688V229.861H375.732V238.534Z" fill="#C7C7C7"/>
<path d="M384.631 223.809H391.587V215.136H384.631V223.809Z" fill="#C7C7C7"/>
<path d="M373.867 215.136H366.911V223.809H373.867V215.136Z" fill="#C7C7C7"/>
<path d="M373.867 229.861H366.911V238.534H373.867V229.861Z" fill="#C7C7C7"/>
<path d="M373.867 244.586H366.911V253.259H373.867V244.586Z" fill="#C7C7C7"/>
<path d="M373.867 259.311H366.911V267.984H373.867V259.311Z" fill="#C7C7C7"/>
<path d="M373.867 274.036H366.911V282.709H373.867V274.036Z" fill="#C7C7C7"/>
<path d="M373.867 288.761H366.911V297.434H373.867V288.761Z" fill="#C7C7C7"/>
<path d="M373.867 303.486H366.911V312.159H373.867V303.486Z" fill="#C7C7C7"/>
<path d="M373.867 318.211H366.911V326.884H373.867V318.211Z" fill="#C7C7C7"/>
<path d="M373.867 332.936H366.911V341.609H373.867V332.936Z" fill="#C7C7C7"/>
<path d="M373.867 347.661H366.911V356.334H373.867V347.661Z" fill="#C7C7C7"/>
<path d="M373.867 362.386H366.911V371.059H373.867V362.386Z" fill="#C7C7C7"/>
<path d="M373.867 377.111H366.911V385.784H373.867V377.111Z" fill="#C7C7C7"/>
<path d="M373.867 391.836H366.911V400.509H373.867V391.836Z" fill="#C7C7C7"/>
<path d="M373.867 406.561H366.911V415.234H373.867V406.561Z" fill="#C7C7C7"/>
<path d="M375.732 223.809H382.688V215.136H375.732V223.809Z" fill="#C7C7C7"/>
<path d="M140.943 202.801H95.7393V434.902H140.943V202.801Z" fill="#EBEBEB"/>
<path d="M140.943 198.179H94.6523V202.801H140.943V198.179Z" fill="#C7C7C7"/>
<path d="M104.406 209.613H99.8262V434.902H104.406V209.613Z" fill="white"/>
<path d="M112.519 209.613H107.939V434.902H112.519V209.613Z" fill="white"/>
<path d="M120.631 209.613H116.051V434.902H120.631V209.613Z" fill="white"/>
<path d="M128.743 209.613H124.163V434.902H128.743V209.613Z" fill="white"/>
<path d="M136.856 209.613H132.276V434.902H136.856V209.613Z" fill="white"/>
<path d="M104.406 215.453H99.8262V224.576H104.406V215.453Z" fill="#EBEBEB"/>
<path d="M112.519 215.453H107.939V224.576H112.519V215.453Z" fill="#EBEBEB"/>
<path d="M120.631 215.453H116.051V224.576H120.631V215.453Z" fill="#EBEBEB"/>
<path d="M128.743 215.453H124.163V224.576H128.743V215.453Z" fill="#EBEBEB"/>
<path d="M136.856 215.453H132.276V224.576H136.856V215.453Z" fill="#EBEBEB"/>
<path d="M104.406 230.281H99.8262V239.405H104.406V230.281Z" fill="#EBEBEB"/>
<path d="M112.519 230.281H107.939V239.405H112.519V230.281Z" fill="#EBEBEB"/>
<path d="M120.631 230.281H116.051V239.405H120.631V230.281Z" fill="#EBEBEB"/>
<path d="M128.743 230.281H124.163V239.405H128.743V230.281Z" fill="#EBEBEB"/>
<path d="M136.856 230.281H132.276V239.405H136.856V230.281Z" fill="#EBEBEB"/>
<path d="M104.406 245.109H99.8262V254.233H104.406V245.109Z" fill="#EBEBEB"/>
<path d="M112.519 245.109H107.939V254.233H112.519V245.109Z" fill="#EBEBEB"/>
<path d="M120.631 245.109H116.051V254.233H120.631V245.109Z" fill="#EBEBEB"/>
<path d="M128.743 245.109H124.163V254.233H128.743V245.109Z" fill="#EBEBEB"/>
<path d="M136.856 245.109H132.276V254.233H136.856V245.109Z" fill="#EBEBEB"/>
<path d="M104.406 259.937H99.8262V269.061H104.406V259.937Z" fill="#EBEBEB"/>
<path d="M112.519 259.937H107.939V269.061H112.519V259.937Z" fill="#EBEBEB"/>
<path d="M120.631 259.937H116.051V269.061H120.631V259.937Z" fill="#EBEBEB"/>
<path d="M128.743 259.937H124.163V269.061H128.743V259.937Z" fill="#EBEBEB"/>
<path d="M136.856 259.937H132.276V269.061H136.856V259.937Z" fill="#EBEBEB"/>
<path d="M104.406 274.765H99.8262V283.889H104.406V274.765Z" fill="#EBEBEB"/>
<path d="M112.519 274.765H107.939V283.889H112.519V274.765Z" fill="#EBEBEB"/>
<path d="M120.631 274.765H116.051V283.889H120.631V274.765Z" fill="#EBEBEB"/>
<path d="M128.743 274.765H124.163V283.889H128.743V274.765Z" fill="#EBEBEB"/>
<path d="M136.856 274.765H132.276V283.889H136.856V274.765Z" fill="#EBEBEB"/>
<path d="M104.406 289.593H99.8262V298.717H104.406V289.593Z" fill="#EBEBEB"/>
<path d="M112.519 289.593H107.939V298.717H112.519V289.593Z" fill="#EBEBEB"/>
<path d="M120.631 289.593H116.051V298.717H120.631V289.593Z" fill="#EBEBEB"/>
<path d="M128.743 289.593H124.163V298.717H128.743V289.593Z" fill="#EBEBEB"/>
<path d="M136.856 289.593H132.276V298.717H136.856V289.593Z" fill="#EBEBEB"/>
<path d="M104.406 304.421H99.8262V313.544H104.406V304.421Z" fill="#EBEBEB"/>
<path d="M112.519 304.421H107.939V313.544H112.519V304.421Z" fill="#EBEBEB"/>
<path d="M120.631 304.421H116.051V313.544H120.631V304.421Z" fill="#EBEBEB"/>
<path d="M128.743 304.421H124.163V313.544H128.743V304.421Z" fill="#EBEBEB"/>
<path d="M136.856 304.421H132.276V313.544H136.856V304.421Z" fill="#EBEBEB"/>
<path d="M104.406 319.249H99.8262V328.373H104.406V319.249Z" fill="#EBEBEB"/>
<path d="M112.519 319.249H107.939V328.373H112.519V319.249Z" fill="#EBEBEB"/>
<path d="M120.631 319.249H116.051V328.373H120.631V319.249Z" fill="#EBEBEB"/>
<path d="M128.743 319.249H124.163V328.373H128.743V319.249Z" fill="#EBEBEB"/>
<path d="M136.856 319.249H132.276V328.373H136.856V319.249Z" fill="#EBEBEB"/>
<path d="M104.406 334.077H99.8262V343.201H104.406V334.077Z" fill="#EBEBEB"/>
<path d="M112.519 334.077H107.939V343.201H112.519V334.077Z" fill="#EBEBEB"/>
<path d="M120.631 334.077H116.051V343.201H120.631V334.077Z" fill="#EBEBEB"/>
<path d="M128.743 334.077H124.163V343.201H128.743V334.077Z" fill="#EBEBEB"/>
<path d="M136.856 334.077H132.276V343.201H136.856V334.077Z" fill="#EBEBEB"/>
<path d="M104.406 348.905H99.8262V358.029H104.406V348.905Z" fill="#EBEBEB"/>
<path d="M112.519 348.905H107.939V358.029H112.519V348.905Z" fill="#EBEBEB"/>
<path d="M120.631 348.905H116.051V358.029H120.631V348.905Z" fill="#EBEBEB"/>
<path d="M128.743 348.905H124.163V358.029H128.743V348.905Z" fill="#EBEBEB"/>
<path d="M136.856 348.905H132.276V358.029H136.856V348.905Z" fill="#EBEBEB"/>
<path d="M104.406 363.733H99.8262V372.857H104.406V363.733Z" fill="#EBEBEB"/>
<path d="M112.519 363.733H107.939V372.857H112.519V363.733Z" fill="#EBEBEB"/>
<path d="M120.631 363.733H116.051V372.857H120.631V363.733Z" fill="#EBEBEB"/>
<path d="M128.743 363.733H124.163V372.857H128.743V363.733Z" fill="#EBEBEB"/>
<path d="M136.856 363.733H132.276V372.857H136.856V363.733Z" fill="#EBEBEB"/>
<path d="M104.406 378.561H99.8262V387.685H104.406V378.561Z" fill="#EBEBEB"/>
<path d="M112.519 378.561H107.939V387.685H112.519V378.561Z" fill="#EBEBEB"/>
<path d="M120.631 378.561H116.051V387.685H120.631V378.561Z" fill="#EBEBEB"/>
<path d="M128.743 378.561H124.163V387.685H128.743V378.561Z" fill="#EBEBEB"/>
<path d="M136.856 378.561H132.276V387.685H136.856V378.561Z" fill="#EBEBEB"/>
<path d="M104.406 393.389H99.8262V402.513H104.406V393.389Z" fill="#EBEBEB"/>
<path d="M112.519 393.389H107.939V402.513H112.519V393.389Z" fill="#EBEBEB"/>
<path d="M120.631 393.389H116.051V402.513H120.631V393.389Z" fill="#EBEBEB"/>
<path d="M128.743 393.389H124.163V402.513H128.743V393.389Z" fill="#EBEBEB"/>
<path d="M136.856 393.389H132.276V402.513H136.856V393.389Z" fill="#EBEBEB"/>
<path d="M104.406 408.217H99.8262V434.902H104.406V408.217Z" fill="#EBEBEB"/>
<path d="M112.519 408.217H107.939V434.902H112.519V408.217Z" fill="#EBEBEB"/>
<path d="M120.631 408.217H116.051V434.902H120.631V408.217Z" fill="#EBEBEB"/>
<path d="M128.743 408.217H124.163V434.902H128.743V408.217Z" fill="#EBEBEB"/>
<path d="M136.856 408.217H132.276V434.902H136.856V408.217Z" fill="#EBEBEB"/>
<path d="M169.964 202.801H140.943V434.902H169.964V202.801Z" fill="#DBDBDB"/>
<path d="M171.22 198.179H140.943V202.801H171.22V198.179Z" fill="#C7C7C7"/>
<path d="M149.61 209.613H145.03V434.902H149.61V209.613Z" fill="#C7C7C7"/>
<path d="M157.723 209.613H153.143V434.902H157.723V209.613Z" fill="#C7C7C7"/>
<path d="M165.835 209.613H161.255V434.902H165.835V209.613Z" fill="#C7C7C7"/>
<path d="M149.61 215.453H145.03V224.576H149.61V215.453Z" fill="#DBDBDB"/>
<path d="M157.723 215.453H153.143V224.576H157.723V215.453Z" fill="#DBDBDB"/>
<path d="M165.835 215.453H161.255V224.576H165.835V215.453Z" fill="#DBDBDB"/>
<path d="M149.61 230.281H145.03V239.405H149.61V230.281Z" fill="#DBDBDB"/>
<path d="M157.723 230.281H153.143V239.405H157.723V230.281Z" fill="#DBDBDB"/>
<path d="M165.835 230.281H161.255V239.405H165.835V230.281Z" fill="#DBDBDB"/>
<path d="M149.61 245.109H145.03V254.233H149.61V245.109Z" fill="#DBDBDB"/>
<path d="M157.723 245.109H153.143V254.233H157.723V245.109Z" fill="#DBDBDB"/>
<path d="M165.835 245.109H161.255V254.233H165.835V245.109Z" fill="#DBDBDB"/>
<path d="M149.61 259.937H145.03V269.061H149.61V259.937Z" fill="#DBDBDB"/>
<path d="M157.723 259.937H153.143V269.061H157.723V259.937Z" fill="#DBDBDB"/>
<path d="M165.835 259.937H161.255V269.061H165.835V259.937Z" fill="#DBDBDB"/>
<path d="M149.61 274.765H145.03V283.889H149.61V274.765Z" fill="#DBDBDB"/>
<path d="M157.723 274.765H153.143V283.889H157.723V274.765Z" fill="#DBDBDB"/>
<path d="M165.835 274.765H161.255V283.889H165.835V274.765Z" fill="#DBDBDB"/>
<path d="M149.61 289.593H145.03V298.717H149.61V289.593Z" fill="#DBDBDB"/>
<path d="M157.723 289.593H153.143V298.717H157.723V289.593Z" fill="#DBDBDB"/>
<path d="M165.835 289.593H161.255V298.717H165.835V289.593Z" fill="#DBDBDB"/>
<path d="M149.61 304.421H145.03V313.544H149.61V304.421Z" fill="#DBDBDB"/>
<path d="M157.723 304.421H153.143V313.544H157.723V304.421Z" fill="#DBDBDB"/>
<path d="M165.835 304.421H161.255V313.544H165.835V304.421Z" fill="#DBDBDB"/>
<path d="M149.61 319.249H145.03V328.373H149.61V319.249Z" fill="#DBDBDB"/>
<path d="M157.723 319.249H153.143V328.373H157.723V319.249Z" fill="#DBDBDB"/>
<path d="M165.835 319.249H161.255V328.373H165.835V319.249Z" fill="#DBDBDB"/>
<path d="M149.61 334.077H145.03V343.201H149.61V334.077Z" fill="#DBDBDB"/>
<path d="M157.723 334.077H153.143V343.201H157.723V334.077Z" fill="#DBDBDB"/>
<path d="M165.835 334.077H161.255V343.201H165.835V334.077Z" fill="#DBDBDB"/>
<path d="M149.61 348.905H145.03V358.029H149.61V348.905Z" fill="#DBDBDB"/>
<path d="M157.723 348.905H153.143V358.029H157.723V348.905Z" fill="#DBDBDB"/>
<path d="M165.835 348.905H161.255V358.029H165.835V348.905Z" fill="#DBDBDB"/>
<path d="M149.61 363.733H145.03V372.857H149.61V363.733Z" fill="#DBDBDB"/>
<path d="M157.723 363.733H153.143V372.857H157.723V363.733Z" fill="#DBDBDB"/>
<path d="M165.835 363.733H161.255V372.857H165.835V363.733Z" fill="#DBDBDB"/>
<path d="M149.61 378.561H145.03V387.685H149.61V378.561Z" fill="#DBDBDB"/>
<path d="M157.723 378.561H153.143V387.685H157.723V378.561Z" fill="#DBDBDB"/>
<path d="M165.835 378.561H161.255V387.685H165.835V378.561Z" fill="#DBDBDB"/>
<path d="M149.61 393.389H145.03V402.513H149.61V393.389Z" fill="#DBDBDB"/>
<path d="M157.723 393.389H153.143V402.513H157.723V393.389Z" fill="#DBDBDB"/>
<path d="M165.835 393.389H161.255V402.513H165.835V393.389Z" fill="#DBDBDB"/>
<path d="M149.61 408.217H145.03V434.902H149.61V408.217Z" fill="#DBDBDB"/>
<path d="M157.723 408.217H153.143V434.902H157.723V408.217Z" fill="#DBDBDB"/>
<path d="M165.835 408.217H161.255V434.902H165.835V408.217Z" fill="#DBDBDB"/>
<path d="M88.1493 272.316H45.2793V434.902H88.1493V272.316Z" fill="#EBEBEB"/>
<path d="M88.149 261.533H51.376V272.316H88.149V261.533Z" fill="#C7C7C7"/>
<path d="M83.4495 277.944H49.9795V399.488H83.4495V277.944Z" fill="#DBDBDB"/>
<path d="M83.4495 289.543H49.9795V292.415H83.4495V289.543Z" fill="white"/>
<path d="M83.4495 301.44H49.9795V304.312H83.4495V301.44Z" fill="white"/>
<path d="M83.4495 313.337H49.9795V316.209H83.4495V313.337Z" fill="white"/>
<path d="M83.4495 325.234H49.9795V328.106H83.4495V325.234Z" fill="white"/>
<path d="M83.4495 337.131H49.9795V340.003H83.4495V337.131Z" fill="white"/>
<path d="M83.4495 349.028H49.9795V351.9H83.4495V349.028Z" fill="white"/>
<path d="M83.4495 360.925H49.9795V363.797H83.4495V360.925Z" fill="white"/>
<path d="M83.4495 372.822H49.9795V375.694H83.4495V372.822Z" fill="white"/>
<path d="M83.4495 384.719H49.9795V387.591H83.4495V384.719Z" fill="white"/>
<path d="M83.4495 396.616H49.9795V399.488H83.4495V396.616Z" fill="white"/>
<path d="M115.001 272.316H88.1494V434.902H115.001V272.316Z" fill="#DBDBDB"/>
<path d="M110.972 261.533H88.1494V272.316H110.972V261.533Z" fill="#727272"/>
<path d="M112.498 277.944H91.8516V399.488H112.498V277.944Z" fill="#C7C7C7"/>
<path d="M112.498 289.543H91.8516V292.415H112.498V289.543Z" fill="white"/>
<path d="M112.498 301.44H91.8516V304.312H112.498V301.44Z" fill="white"/>
<path d="M112.498 313.337H91.8516V316.209H112.498V313.337Z" fill="white"/>
<path d="M112.498 325.234H91.8516V328.106H112.498V325.234Z" fill="white"/>
<path d="M112.498 337.131H91.8516V340.003H112.498V337.131Z" fill="white"/>
<path d="M112.498 349.028H91.8516V351.9H112.498V349.028Z" fill="white"/>
<path d="M112.498 360.925H91.8516V363.797H112.498V360.925Z" fill="white"/>
<path d="M112.498 372.822H91.8516V375.694H112.498V372.822Z" fill="white"/>
<path d="M112.498 384.719H91.8516V387.591H112.498V384.719Z" fill="white"/>
<path d="M112.498 396.616H91.8516V399.488H112.498V396.616Z" fill="white"/>
<path d="M420.501 275.057H397.604V302.104H420.501V275.057Z" fill="#DBDBDB"/>
<path d="M435.018 275.057H420.501V303.096H435.018V275.057Z" fill="#C7C7C7"/>
<path d="M435.985 287H421.577V303.096H435.985V287Z" fill="#DBDBDB"/>
<path d="M444.971 287H435.985V303.096H444.971V287Z" fill="#C7C7C7"/>
<path d="M425.846 300.346H388.822V434.902H425.846V300.346Z" fill="#EBEBEB"/>
<path d="M404.698 306.13H393.056V310.887H404.698V306.13Z" fill="white"/>
<path d="M419.59 306.13H407.948V310.887H419.59V306.13Z" fill="white"/>
<path d="M404.698 314.207H393.056V318.964H404.698V314.207Z" fill="white"/>
<path d="M419.59 314.207H407.948V318.964H419.59V314.207Z" fill="white"/>
<path d="M404.698 322.283H393.056V327.04H404.698V322.283Z" fill="white"/>
<path d="M419.59 322.283H407.948V327.04H419.59V322.283Z" fill="white"/>
<path d="M404.698 330.36H393.056V335.117H404.698V330.36Z" fill="white"/>
<path d="M419.59 330.36H407.948V335.117H419.59V330.36Z" fill="white"/>
<path d="M404.698 338.436H393.056V343.193H404.698V338.436Z" fill="white"/>
<path d="M419.59 338.436H407.948V343.193H419.59V338.436Z" fill="white"/>
<path d="M404.698 346.513H393.056V351.27H404.698V346.513Z" fill="white"/>
<path d="M419.59 346.513H407.948V351.27H419.59V346.513Z" fill="white"/>
<path d="M404.698 354.589H393.056V359.346H404.698V354.589Z" fill="white"/>
<path d="M419.59 354.589H407.948V359.346H419.59V354.589Z" fill="white"/>
<path d="M404.698 362.666H393.056V367.423H404.698V362.666Z" fill="white"/>
<path d="M419.59 362.666H407.948V367.423H419.59V362.666Z" fill="white"/>
<path d="M404.698 370.742H393.056V375.499H404.698V370.742Z" fill="white"/>
<path d="M419.59 370.742H407.948V375.499H419.59V370.742Z" fill="white"/>
<path d="M404.698 378.819H393.056V383.576H404.698V378.819Z" fill="white"/>
<path d="M419.59 378.819H407.948V383.576H419.59V378.819Z" fill="white"/>
<path d="M404.698 386.895H393.056V391.652H404.698V386.895Z" fill="white"/>
<path d="M419.59 386.895H407.948V391.652H419.59V386.895Z" fill="white"/>
<path d="M404.698 394.972H393.056V399.729H404.698V394.972Z" fill="white"/>
<path d="M419.59 394.972H407.948V399.729H419.59V394.972Z" fill="white"/>
<path d="M404.698 403.048H393.056V407.805H404.698V403.048Z" fill="white"/>
<path d="M419.59 403.048H407.948V407.805H419.59V403.048Z" fill="white"/>
<path d="M404.698 411.125H393.056V415.882H404.698V411.125Z" fill="white"/>
<path d="M419.59 411.125H407.948V415.882H419.59V411.125Z" fill="white"/>
<path d="M455.848 300.346H425.847V434.902H455.848V300.346Z" fill="#C7C7C7"/>
<path d="M443.281 415.881H452.84V411.124H443.281V415.881Z" fill="#EBEBEB"/>
<path d="M431.052 415.881H440.611V411.124H431.052V415.881Z" fill="#EBEBEB"/>
<path d="M443.281 407.805H452.84V403.048H443.281V407.805Z" fill="#EBEBEB"/>
<path d="M431.052 407.805H440.611V403.048H431.052V407.805Z" fill="#EBEBEB"/>
<path d="M443.281 399.728H452.84V394.971H443.281V399.728Z" fill="#EBEBEB"/>
<path d="M431.052 399.728H440.611V394.971H431.052V399.728Z" fill="#EBEBEB"/>
<path d="M443.281 391.652H452.84V386.895H443.281V391.652Z" fill="#EBEBEB"/>
<path d="M431.052 391.652H440.611V386.895H431.052V391.652Z" fill="#EBEBEB"/>
<path d="M443.281 383.575H452.84V378.818H443.281V383.575Z" fill="#EBEBEB"/>
<path d="M431.052 383.575H440.611V378.818H431.052V383.575Z" fill="#EBEBEB"/>
<path d="M443.281 375.499H452.84V370.742H443.281V375.499Z" fill="#EBEBEB"/>
<path d="M431.052 375.499H440.611V370.742H431.052V375.499Z" fill="#EBEBEB"/>
<path d="M443.281 367.422H452.84V362.665H443.281V367.422Z" fill="#EBEBEB"/>
<path d="M431.052 367.422H440.611V362.665H431.052V367.422Z" fill="#EBEBEB"/>
<path d="M443.281 359.346H452.84V354.589H443.281V359.346Z" fill="#EBEBEB"/>
<path d="M431.052 359.346H440.611V354.589H431.052V359.346Z" fill="#EBEBEB"/>
<path d="M443.281 351.27H452.84V346.513H443.281V351.27Z" fill="#EBEBEB"/>
<path d="M431.052 351.27H440.611V346.513H431.052V351.27Z" fill="#EBEBEB"/>
<path d="M443.281 343.193H452.84V338.436H443.281V343.193Z" fill="#EBEBEB"/>
<path d="M431.052 343.193H440.611V338.436H431.052V343.193Z" fill="#EBEBEB"/>
<path d="M443.281 335.116H452.84V330.359H443.281V335.116Z" fill="#EBEBEB"/>
<path d="M431.052 335.116H440.611V330.359H431.052V335.116Z" fill="#EBEBEB"/>
<path d="M443.281 327.041H452.84V322.284H443.281V327.041Z" fill="#EBEBEB"/>
<path d="M431.052 327.041H440.611V322.284H431.052V327.041Z" fill="#EBEBEB"/>
<path d="M443.281 318.963H452.84V314.206H443.281V318.963Z" fill="#EBEBEB"/>
<path d="M431.052 318.963H440.611V314.206H431.052V318.963Z" fill="#EBEBEB"/>
<path d="M443.281 310.888H452.84V306.131H443.281V310.888Z" fill="#EBEBEB"/>
<path d="M431.052 310.888H440.611V306.131H431.052V310.888Z" fill="#EBEBEB"/>
<path d="M292.114 347.224H248.445V434.903H292.114V347.224Z" fill="#C7C7C7"/>
<path d="M263.04 354.813H255.312V360.185H263.04V354.813Z" fill="#DBDBDB"/>
<path d="M263.04 366.287H255.312V371.659H263.04V366.287Z" fill="#DBDBDB"/>
<path d="M263.04 377.76H255.312V383.132H263.04V377.76Z" fill="#DBDBDB"/>
<path d="M263.04 389.234H255.312V394.606H263.04V389.234Z" fill="#DBDBDB"/>
<path d="M263.04 400.707H255.312V406.079H263.04V400.707Z" fill="#DBDBDB"/>
<path d="M263.04 412.181H255.312V417.553H263.04V412.181Z" fill="#DBDBDB"/>
<path d="M263.04 423.655H255.312V429.027H263.04V423.655Z" fill="#DBDBDB"/>
<path d="M274.158 354.813H266.43V360.185H274.158V354.813Z" fill="#DBDBDB"/>
<path d="M274.158 366.287H266.43V371.659H274.158V366.287Z" fill="#DBDBDB"/>
<path d="M274.158 377.76H266.43V383.132H274.158V377.76Z" fill="#DBDBDB"/>
<path d="M274.158 389.234H266.43V394.606H274.158V389.234Z" fill="#DBDBDB"/>
<path d="M274.158 400.707H266.43V406.079H274.158V400.707Z" fill="#DBDBDB"/>
<path d="M274.158 412.181H266.43V417.553H274.158V412.181Z" fill="#DBDBDB"/>
<path d="M274.158 423.655H266.43V429.027H274.158V423.655Z" fill="#DBDBDB"/>
<path d="M285.248 354.813H277.52V360.185H285.248V354.813Z" fill="#DBDBDB"/>
<path d="M285.248 366.287H277.52V371.659H285.248V366.287Z" fill="#DBDBDB"/>
<path d="M285.248 377.76H277.52V383.132H285.248V377.76Z" fill="#DBDBDB"/>
<path d="M285.248 389.234H277.52V394.606H285.248V389.234Z" fill="#DBDBDB"/>
<path d="M285.248 400.707H277.52V406.079H285.248V400.707Z" fill="#DBDBDB"/>
<path d="M285.248 412.181H277.52V417.553H285.248V412.181Z" fill="#DBDBDB"/>
<path d="M285.248 423.655H277.52V429.027H285.248V423.655Z" fill="#DBDBDB"/>
<path d="M292.115 338.089H263.041V347.224H292.115V338.089Z" fill="#DBDBDB"/>
<path d="M292.115 332.433H273.683V338.089H292.115V332.433Z" fill="#EBEBEB"/>
<path d="M322.753 347.224H292.114V434.903H322.753V347.224Z" fill="#727272"/>
<path d="M313.327 428.17H319.618V422.798H313.327V428.17Z" fill="#C7C7C7"/>
<path d="M313.327 416.697H319.618V411.325H313.327V416.697Z" fill="#C7C7C7"/>
<path d="M313.327 405.222H319.618V399.85H313.327V405.222Z" fill="#C7C7C7"/>
<path d="M313.327 393.749H319.618V388.377H313.327V393.749Z" fill="#C7C7C7"/>
<path d="M313.327 382.275H319.618V376.903H313.327V382.275Z" fill="#C7C7C7"/>
<path d="M313.327 370.802H319.618V365.43H313.327V370.802Z" fill="#C7C7C7"/>
<path d="M313.327 359.328H319.618V353.956H313.327V359.328Z" fill="#C7C7C7"/>
<path d="M304.277 428.17H310.568V422.798H304.277V428.17Z" fill="#C7C7C7"/>
<path d="M304.277 416.697H310.568V411.325H304.277V416.697Z" fill="#C7C7C7"/>
<path d="M304.277 405.222H310.568V399.85H304.277V405.222Z" fill="#C7C7C7"/>
<path d="M304.277 393.749H310.568V388.377H304.277V393.749Z" fill="#C7C7C7"/>
<path d="M304.277 382.275H310.568V376.903H304.277V382.275Z" fill="#C7C7C7"/>
<path d="M304.277 370.802H310.568V365.43H304.277V370.802Z" fill="#C7C7C7"/>
<path d="M304.277 359.328H310.568V353.956H304.277V359.328Z" fill="#C7C7C7"/>
<path d="M295.251 428.17H301.542V422.798H295.251V428.17Z" fill="#C7C7C7"/>
<path d="M295.251 416.697H301.542V411.325H295.251V416.697Z" fill="#C7C7C7"/>
<path d="M295.251 405.222H301.542V399.85H295.251V405.222Z" fill="#C7C7C7"/>
<path d="M295.251 393.749H301.542V388.377H295.251V393.749Z" fill="#C7C7C7"/>
<path d="M295.251 382.275H301.542V376.903H295.251V382.275Z" fill="#C7C7C7"/>
<path d="M295.251 370.802H301.542V365.43H295.251V370.802Z" fill="#C7C7C7"/>
<path d="M295.251 359.328H301.542V353.956H295.251V359.328Z" fill="#C7C7C7"/>
<path d="M318.111 338.089H292.114V347.224H318.111V338.089Z" fill="#C7C7C7"/>
<path d="M306.202 332.433H292.114V338.089H306.202V332.433Z" fill="#DBDBDB"/>
<path d="M407.268 224.997H341.273V427.633H407.268V224.997Z" fill="#B0B7BA"/>
<path d="M407.022 204.613H357.639V224.997H407.022V204.613Z" fill="#9DA2A4"/>
<path d="M365.972 207.758H361.751V221.853H365.972V207.758Z" fill="#B0B7BA"/>
<path d="M373.36 207.758H369.139V221.853H373.36V207.758Z" fill="#B0B7BA"/>
<path d="M380.747 207.758H376.526V221.853H380.747V207.758Z" fill="#B0B7BA"/>
<path d="M388.135 207.758H383.914V221.853H388.135V207.758Z" fill="#B0B7BA"/>
<path d="M395.522 207.758H391.301V221.853H395.522V207.758Z" fill="#B0B7BA"/>
<path d="M402.91 207.758H398.689V221.853H402.91V207.758Z" fill="#B0B7BA"/>
<path d="M429.477 204.613H407.021V224.997H429.477V204.613Z" fill="#B0B7BA"/>
<path d="M413.762 207.758H410.171V221.853H413.762V207.758Z" fill="#9DA2A4"/>
<path d="M420.046 207.758H416.455V221.853H420.046V207.758Z" fill="#9DA2A4"/>
<path d="M426.33 207.758H422.739V221.853H426.33V207.758Z" fill="#9DA2A4"/>
<path d="M440.611 224.997H407.021V427.633H440.611V224.997Z" fill="#9DA2A4"/>
<path d="M368.517 194.285H367.006V204.613H368.517V194.285Z" fill="#E5E5E6"/>
<path d="M397.656 194.285H396.145V204.613H397.656V194.285Z" fill="#E5E5E6"/>
<path d="M404.349 176.224H360.312V194.284H404.349V176.224Z" fill="#B9B9B9"/>
<path d="M366.963 238.954H354.782V257.607H366.963V238.954Z" fill="#E5E5E6"/>
<path d="M391.759 238.954H379.578V257.607H391.759V238.954Z" fill="#E5E5E6"/>
<path d="M366.963 268.348H354.782V287.001H366.963V268.348Z" fill="#E5E5E6"/>
<path d="M391.759 268.348H379.578V287.001H391.759V268.348Z" fill="#E5E5E6"/>
<path d="M366.963 297.742H354.782V316.395H366.963V297.742Z" fill="#E5E5E6"/>
<path d="M391.759 297.742H379.578V316.395H391.759V297.742Z" fill="#E5E5E6"/>
<path d="M366.963 327.135H354.782V345.788H366.963V327.135Z" fill="#E5E5E6"/>
<path d="M391.759 327.135H379.578V345.788H391.759V327.135Z" fill="#E5E5E6"/>
<path d="M366.963 356.529H354.782V375.182H366.963V356.529Z" fill="#E5E5E6"/>
<path d="M391.759 356.529H379.578V375.182H391.759V356.529Z" fill="#E5E5E6"/>
<path d="M366.963 385.923H354.782V404.576H366.963V385.923Z" fill="#E5E5E6"/>
<path d="M391.759 385.923H379.578V404.576H391.759V385.923Z" fill="#E5E5E6"/>
<path d="M420.191 238.954H413.191V257.607H420.191V238.954Z" fill="#E5E5E6"/>
<path d="M434.441 238.954H427.441V257.607H434.441V238.954Z" fill="#E5E5E6"/>
<path d="M420.191 268.348H413.191V287.001H420.191V268.348Z" fill="#E5E5E6"/>
<path d="M434.441 268.348H427.441V287.001H434.441V268.348Z" fill="#E5E5E6"/>
<path d="M420.191 297.742H413.191V316.395H420.191V297.742Z" fill="#E5E5E6"/>
<path d="M434.441 297.742H427.441V316.395H434.441V297.742Z" fill="#E5E5E6"/>
<path d="M420.191 327.135H413.191V345.788H420.191V327.135Z" fill="#E5E5E6"/>
<path d="M434.441 327.135H427.441V345.788H434.441V327.135Z" fill="#E5E5E6"/>
<path d="M420.191 356.529H413.191V375.182H420.191V356.529Z" fill="#E5E5E6"/>
<path d="M434.441 356.529H427.441V375.182H434.441V356.529Z" fill="#E5E5E6"/>
<path d="M420.191 385.923H413.191V404.576H420.191V385.923Z" fill="#E5E5E6"/>
<path d="M434.441 385.923H427.441V404.576H434.441V385.923Z" fill="#E5E5E6"/>
<path d="M232.382 167.675H197.082V427.634H232.382V167.675Z" fill="#9DA2A4"/>
<path d="M232.382 182.236H197.082V184.968H232.382V182.236Z" fill="#B0B7BA"/>
<path d="M207.217 192.999H200.72V208.198H207.217V192.999Z" fill="#E5E5E6"/>
<path d="M207.217 212.176H200.72V227.375H207.217V212.176Z" fill="#E5E5E6"/>
<path d="M207.217 231.354H200.72V246.553H207.217V231.354Z" fill="#E5E5E6"/>
<path d="M207.217 250.521H200.72V265.72H207.217V250.521Z" fill="#E5E5E6"/>
<path d="M207.217 269.699H200.72V284.898H207.217V269.699Z" fill="#E5E5E6"/>
<path d="M207.217 288.877H200.72V304.076H207.217V288.877Z" fill="#E5E5E6"/>
<path d="M207.217 308.044H200.72V323.243H207.217V308.044Z" fill="#E5E5E6"/>
<path d="M207.217 327.221H200.72V342.42H207.217V327.221Z" fill="#E5E5E6"/>
<path d="M207.217 346.399H200.72V361.598H207.217V346.399Z" fill="#E5E5E6"/>
<path d="M207.217 365.566H200.72V380.765H207.217V365.566Z" fill="#E5E5E6"/>
<path d="M207.217 384.744H200.72V399.943H207.217V384.744Z" fill="#E5E5E6"/>
<path d="M207.217 403.922H200.72V419.121H207.217V403.922Z" fill="#E5E5E6"/>
<path d="M207.217 192.999H200.72V208.198H207.217V192.999Z" fill="#E5E5E6"/>
<path d="M207.217 212.176H200.72V227.375H207.217V212.176Z" fill="#E5E5E6"/>
<path d="M207.217 231.354H200.72V246.553H207.217V231.354Z" fill="#E5E5E6"/>
<path d="M207.217 250.521H200.72V265.72H207.217V250.521Z" fill="#E5E5E6"/>
<path d="M207.217 269.699H200.72V284.898H207.217V269.699Z" fill="#E5E5E6"/>
<path d="M207.217 288.877H200.72V304.076H207.217V288.877Z" fill="#E5E5E6"/>
<path d="M207.217 308.044H200.72V323.243H207.217V308.044Z" fill="#E5E5E6"/>
<path d="M207.217 327.221H200.72V342.42H207.217V327.221Z" fill="#E5E5E6"/>
<path d="M207.217 346.399H200.72V361.598H207.217V346.399Z" fill="#E5E5E6"/>
<path d="M207.217 365.566H200.72V380.765H207.217V365.566Z" fill="#E5E5E6"/>
<path d="M207.217 384.744H200.72V399.943H207.217V384.744Z" fill="#E5E5E6"/>
<path d="M207.217 403.922H200.72V419.121H207.217V403.922Z" fill="#E5E5E6"/>
<path d="M217.98 192.999H211.483V208.198H217.98V192.999Z" fill="#E5E5E6"/>
<path d="M217.98 212.176H211.483V227.375H217.98V212.176Z" fill="#E5E5E6"/>
<path d="M217.98 231.354H211.483V246.553H217.98V231.354Z" fill="#E5E5E6"/>
<path d="M217.98 250.521H211.483V265.72H217.98V250.521Z" fill="#E5E5E6"/>
<path d="M217.98 269.699H211.483V284.898H217.98V269.699Z" fill="#E5E5E6"/>
<path d="M217.98 288.877H211.483V304.076H217.98V288.877Z" fill="#E5E5E6"/>
<path d="M217.98 308.044H211.483V323.243H217.98V308.044Z" fill="#E5E5E6"/>
<path d="M217.98 327.221H211.483V342.42H217.98V327.221Z" fill="#E5E5E6"/>
<path d="M217.98 346.399H211.483V361.598H217.98V346.399Z" fill="#E5E5E6"/>
<path d="M217.98 365.566H211.483V380.765H217.98V365.566Z" fill="#E5E5E6"/>
<path d="M217.98 384.744H211.483V399.943H217.98V384.744Z" fill="#E5E5E6"/>
<path d="M217.98 403.922H211.483V419.121H217.98V403.922Z" fill="#E5E5E6"/>
<path d="M217.98 192.999H211.483V208.198H217.98V192.999Z" fill="#E5E5E6"/>
<path d="M217.98 212.176H211.483V227.375H217.98V212.176Z" fill="#E5E5E6"/>
<path d="M217.98 231.354H211.483V246.553H217.98V231.354Z" fill="#E5E5E6"/>
<path d="M217.98 250.521H211.483V265.72H217.98V250.521Z" fill="#E5E5E6"/>
<path d="M217.98 269.699H211.483V284.898H217.98V269.699Z" fill="#E5E5E6"/>
<path d="M217.98 288.877H211.483V304.076H217.98V288.877Z" fill="#E5E5E6"/>
<path d="M217.98 308.044H211.483V323.243H217.98V308.044Z" fill="#E5E5E6"/>
<path d="M217.98 327.221H211.483V342.42H217.98V327.221Z" fill="#E5E5E6"/>
<path d="M217.98 346.399H211.483V361.598H217.98V346.399Z" fill="#E5E5E6"/>
<path d="M217.98 365.566H211.483V380.765H217.98V365.566Z" fill="#E5E5E6"/>
<path d="M217.98 384.744H211.483V399.943H217.98V384.744Z" fill="#E5E5E6"/>
<path d="M217.98 403.922H211.483V419.121H217.98V403.922Z" fill="#E5E5E6"/>
<path d="M228.744 192.999H222.247V208.198H228.744V192.999Z" fill="#E5E5E6"/>
<path d="M228.744 212.176H222.247V227.375H228.744V212.176Z" fill="#E5E5E6"/>
<path d="M228.744 231.354H222.247V246.553H228.744V231.354Z" fill="#E5E5E6"/>
<path d="M228.744 250.521H222.247V265.72H228.744V250.521Z" fill="#E5E5E6"/>
<path d="M228.744 269.699H222.247V284.898H228.744V269.699Z" fill="#E5E5E6"/>
<path d="M228.744 288.877H222.247V304.076H228.744V288.877Z" fill="#E5E5E6"/>
<path d="M228.744 308.044H222.247V323.243H228.744V308.044Z" fill="#E5E5E6"/>
<path d="M228.744 327.221H222.247V342.42H228.744V327.221Z" fill="#E5E5E6"/>
<path d="M228.744 346.399H222.247V361.598H228.744V346.399Z" fill="#E5E5E6"/>
<path d="M228.744 365.566H222.247V380.765H228.744V365.566Z" fill="#E5E5E6"/>
<path d="M228.744 384.744H222.247V399.943H228.744V384.744Z" fill="#E5E5E6"/>
<path d="M228.744 403.922H222.247V419.121H228.744V403.922Z" fill="#E5E5E6"/>
<path d="M228.744 192.999H222.247V208.198H228.744V192.999Z" fill="#E5E5E6"/>
<path d="M228.744 212.176H222.247V227.375H228.744V212.176Z" fill="#E5E5E6"/>
<path d="M228.744 231.354H222.247V246.553H228.744V231.354Z" fill="#E5E5E6"/>
<path d="M228.744 250.521H222.247V265.72H228.744V250.521Z" fill="#E5E5E6"/>
<path d="M228.744 269.699H222.247V284.898H228.744V269.699Z" fill="#E5E5E6"/>
<path d="M228.744 288.877H222.247V304.076H228.744V288.877Z" fill="#E5E5E6"/>
<path d="M228.744 308.044H222.247V323.243H228.744V308.044Z" fill="#E5E5E6"/>
<path d="M228.744 327.221H222.247V342.42H228.744V327.221Z" fill="#E5E5E6"/>
<path d="M228.744 346.399H222.247V361.598H228.744V346.399Z" fill="#E5E5E6"/>
<path d="M228.744 365.566H222.247V380.765H228.744V365.566Z" fill="#E5E5E6"/>
<path d="M228.744 384.744H222.247V399.943H228.744V384.744Z" fill="#E5E5E6"/>
<path d="M228.744 403.922H222.247V419.121H228.744V403.922Z" fill="#E5E5E6"/>
<path d="M197.082 167.675H136.736V427.634H197.082V167.675Z" fill="#B0B7BA"/>
<path d="M197.082 182.236H136.736V184.968H197.082V182.236Z" fill="#9DA2A4"/>
<path d="M197.082 153.07H158.246V167.675H197.082V153.07Z" fill="#9DA2A4"/>
<path d="M197.083 167.675H215.332V153.07H197.083V167.675Z" fill="#E5E5E6"/>
<path d="M153.751 192.999H143.202V208.198H153.751V192.999Z" fill="#E5E5E6"/>
<path d="M153.751 212.176H143.202V227.375H153.751V212.176Z" fill="#E5E5E6"/>
<path d="M153.751 231.354H143.202V246.553H153.751V231.354Z" fill="#E5E5E6"/>
<path d="M153.751 250.521H143.202V265.72H153.751V250.521Z" fill="#E5E5E6"/>
<path d="M153.751 269.699H143.202V284.898H153.751V269.699Z" fill="#E5E5E6"/>
<path d="M153.751 288.877H143.202V304.076H153.751V288.877Z" fill="#E5E5E6"/>
<path d="M153.751 308.044H143.202V323.243H153.751V308.044Z" fill="#E5E5E6"/>
<path d="M153.751 327.221H143.202V342.42H153.751V327.221Z" fill="#E5E5E6"/>
<path d="M153.751 346.399H143.202V361.598H153.751V346.399Z" fill="#E5E5E6"/>
<path d="M153.751 365.566H143.202V380.765H153.751V365.566Z" fill="#E5E5E6"/>
<path d="M153.751 384.744H143.202V399.943H153.751V384.744Z" fill="#E5E5E6"/>
<path d="M153.751 403.922H143.202V419.121H153.751V403.922Z" fill="#E5E5E6"/>
<path d="M153.751 192.999H143.202V208.198H153.751V192.999Z" fill="#E5E5E6"/>
<path d="M153.751 212.176H143.202V227.375H153.751V212.176Z" fill="#E5E5E6"/>
<path d="M153.751 231.354H143.202V246.553H153.751V231.354Z" fill="#E5E5E6"/>
<path d="M153.751 250.521H143.202V265.72H153.751V250.521Z" fill="#E5E5E6"/>
<path d="M153.751 269.699H143.202V284.898H153.751V269.699Z" fill="#E5E5E6"/>
<path d="M153.751 288.877H143.202V304.076H153.751V288.877Z" fill="#E5E5E6"/>
<path d="M153.751 308.044H143.202V323.243H153.751V308.044Z" fill="#E5E5E6"/>
<path d="M153.751 327.221H143.202V342.42H153.751V327.221Z" fill="#E5E5E6"/>
<path d="M153.751 346.399H143.202V361.598H153.751V346.399Z" fill="#E5E5E6"/>
<path d="M153.751 365.566H143.202V380.765H153.751V365.566Z" fill="#E5E5E6"/>
<path d="M153.751 384.744H143.202V399.943H153.751V384.744Z" fill="#E5E5E6"/>
<path d="M153.751 403.922H143.202V419.121H153.751V403.922Z" fill="#E5E5E6"/>
<path d="M171.226 192.999H160.677V208.198H171.226V192.999Z" fill="#E5E5E6"/>
<path d="M171.226 212.176H160.677V227.375H171.226V212.176Z" fill="#E5E5E6"/>
<path d="M171.226 231.354H160.677V246.553H171.226V231.354Z" fill="#E5E5E6"/>
<path d="M171.226 250.521H160.677V265.72H171.226V250.521Z" fill="#E5E5E6"/>
<path d="M171.226 269.699H160.677V284.898H171.226V269.699Z" fill="#E5E5E6"/>
<path d="M171.226 288.877H160.677V304.076H171.226V288.877Z" fill="#E5E5E6"/>
<path d="M171.226 308.044H160.677V323.243H171.226V308.044Z" fill="#E5E5E6"/>
<path d="M171.226 327.221H160.677V342.42H171.226V327.221Z" fill="#E5E5E6"/>
<path d="M171.226 346.399H160.677V361.598H171.226V346.399Z" fill="#E5E5E6"/>
<path d="M171.226 365.566H160.677V380.765H171.226V365.566Z" fill="#E5E5E6"/>
<path d="M171.226 384.744H160.677V399.943H171.226V384.744Z" fill="#E5E5E6"/>
<path d="M171.226 403.922H160.677V419.121H171.226V403.922Z" fill="#E5E5E6"/>
<path d="M171.226 192.999H160.677V208.198H171.226V192.999Z" fill="#E5E5E6"/>
<path d="M171.226 212.176H160.677V227.375H171.226V212.176Z" fill="#E5E5E6"/>
<path d="M171.226 231.354H160.677V246.553H171.226V231.354Z" fill="#E5E5E6"/>
<path d="M171.226 250.521H160.677V265.72H171.226V250.521Z" fill="#E5E5E6"/>
<path d="M171.226 269.699H160.677V284.898H171.226V269.699Z" fill="#E5E5E6"/>
<path d="M171.226 288.877H160.677V304.076H171.226V288.877Z" fill="#E5E5E6"/>
<path d="M171.226 308.044H160.677V323.243H171.226V308.044Z" fill="#E5E5E6"/>
<path d="M171.226 327.221H160.677V342.42H171.226V327.221Z" fill="#E5E5E6"/>
<path d="M171.226 346.399H160.677V361.598H171.226V346.399Z" fill="#E5E5E6"/>
<path d="M171.226 365.566H160.677V380.765H171.226V365.566Z" fill="#E5E5E6"/>
<path d="M171.226 384.744H160.677V399.943H171.226V384.744Z" fill="#E5E5E6"/>
<path d="M171.226 403.922H160.677V419.121H171.226V403.922Z" fill="#E5E5E6"/>
<path d="M188.701 192.999H178.152V208.198H188.701V192.999Z" fill="#E5E5E6"/>
<path d="M188.701 212.176H178.152V227.375H188.701V212.176Z" fill="#E5E5E6"/>
<path d="M188.701 231.354H178.152V246.553H188.701V231.354Z" fill="#E5E5E6"/>
<path d="M188.701 250.521H178.152V265.72H188.701V250.521Z" fill="#E5E5E6"/>
<path d="M188.701 269.699H178.152V284.898H188.701V269.699Z" fill="#E5E5E6"/>
<path d="M188.701 288.877H178.152V304.076H188.701V288.877Z" fill="#E5E5E6"/>
<path d="M188.701 308.044H178.152V323.243H188.701V308.044Z" fill="#E5E5E6"/>
<path d="M188.701 327.221H178.152V342.42H188.701V327.221Z" fill="#E5E5E6"/>
<path d="M188.701 346.399H178.152V361.598H188.701V346.399Z" fill="#E5E5E6"/>
<path d="M188.701 365.566H178.152V380.765H188.701V365.566Z" fill="#E5E5E6"/>
<path d="M188.701 384.744H178.152V399.943H188.701V384.744Z" fill="#E5E5E6"/>
<path d="M188.701 403.922H178.152V419.121H188.701V403.922Z" fill="#E5E5E6"/>
<path d="M188.701 192.999H178.152V208.198H188.701V192.999Z" fill="#E5E5E6"/>
<path d="M188.701 212.176H178.152V227.375H188.701V212.176Z" fill="#E5E5E6"/>
<path d="M188.701 231.354H178.152V246.553H188.701V231.354Z" fill="#E5E5E6"/>
<path d="M188.701 250.521H178.152V265.72H188.701V250.521Z" fill="#E5E5E6"/>
<path d="M188.701 269.699H178.152V284.898H188.701V269.699Z" fill="#E5E5E6"/>
<path d="M188.701 288.877H178.152V304.076H188.701V288.877Z" fill="#E5E5E6"/>
<path d="M188.701 308.044H178.152V323.243H188.701V308.044Z" fill="#E5E5E6"/>
<path d="M188.701 327.221H178.152V342.42H188.701V327.221Z" fill="#E5E5E6"/>
<path d="M188.701 346.399H178.152V361.598H188.701V346.399Z" fill="#E5E5E6"/>
<path d="M188.701 365.566H178.152V380.765H188.701V365.566Z" fill="#E5E5E6"/>
<path d="M188.701 384.744H178.152V399.943H188.701V384.744Z" fill="#E5E5E6"/>
<path d="M188.701 403.922H178.152V419.121H188.701V403.922Z" fill="#E5E5E6"/>
<path d="M113.834 427.633H65.9941V277.558L113.834 246.553V427.633Z" fill="#B9B9B9"/>
<path d="M107.685 427.633H71.3779V281.757L107.685 258.226V427.633Z" fill="#B9B9B9"/>
<path opacity="0.3" d="M107.685 427.633H71.3779V281.757L107.685 258.226V427.633Z" fill="black"/>
<g opacity="0.3">
<path d="M107.684 284.282H75.5361V285.439H107.684V284.282Z" fill="black"/>
<path d="M107.684 293.761H75.5361V294.918H107.684V293.761Z" fill="black"/>
<path d="M107.684 303.241H75.5361V304.398H107.684V303.241Z" fill="black"/>
<path d="M107.684 312.721H75.5361V313.878H107.684V312.721Z" fill="black"/>
<path d="M107.684 322.2H75.5361V323.357H107.684V322.2Z" fill="black"/>
<path d="M107.684 331.68H75.5361V332.837H107.684V331.68Z" fill="black"/>
<path d="M107.684 341.16H75.5361V342.317H107.684V341.16Z" fill="black"/>
<path d="M107.684 350.639H75.5361V351.796H107.684V350.639Z" fill="black"/>
<path d="M107.684 360.119H75.5361V361.276H107.684V360.119Z" fill="black"/>
<path d="M107.684 369.599H75.5361V370.756H107.684V369.599Z" fill="black"/>
<path d="M107.684 379.078H75.5361V380.235H107.684V379.078Z" fill="black"/>
<path d="M107.684 388.558H75.5361V389.715H107.684V388.558Z" fill="black"/>
<path d="M107.684 398.038H75.5361V399.195H107.684V398.038Z" fill="black"/>
<path d="M107.684 407.517H75.5361V408.674H107.684V407.517Z" fill="black"/>
<path d="M107.684 416.997H75.5361V418.154H107.684V416.997Z" fill="black"/>
<path d="M107.684 426.477H75.5361V427.634H107.684V426.477Z" fill="black"/>
<path d="M91.0313 273.266L91.0312 427.634H92.1883L92.1883 273.266H91.0313Z" fill="black"/>
</g>
<path d="M107.684 258.225V263.447L75.5359 284.282V427.633H71.3809V281.754L107.684 258.225Z" fill="#B9B9B9"/>
<path opacity="0.2" d="M107.684 258.225V263.447L75.5359 284.282V427.633H71.3809V281.754L107.684 258.225Z" fill="black"/>
<path d="M155.98 246.553H113.834V427.633H155.98V246.553Z" fill="#B9B9B9"/>
<path opacity="0.2" d="M155.98 246.553H113.834V427.633H155.98V246.553Z" fill="black"/>
<g opacity="0.2">
<path d="M151.891 258.225H117.923V262.323H151.891V258.225Z" fill="black"/>
<path d="M151.891 267.511H117.923V271.609H151.891V267.511Z" fill="black"/>
<path d="M151.891 276.797H117.923V280.895H151.891V276.797Z" fill="black"/>
<path d="M151.891 286.084H117.923V290.182H151.891V286.084Z" fill="black"/>
<path d="M151.891 295.37H117.923V299.468H151.891V295.37Z" fill="black"/>
<path d="M151.891 304.656H117.923V308.754H151.891V304.656Z" fill="black"/>
<path d="M151.891 313.942H117.923V318.04H151.891V313.942Z" fill="black"/>
<path d="M151.891 323.228H117.923V327.326H151.891V323.228Z" fill="black"/>
<path d="M151.891 332.514H117.923V336.612H151.891V332.514Z" fill="black"/>
<path d="M151.891 341.8H117.923V345.898H151.891V341.8Z" fill="black"/>
<path d="M151.891 351.086H117.923V355.184H151.891V351.086Z" fill="black"/>
<path d="M151.891 360.373H117.923V364.471H151.891V360.373Z" fill="black"/>
<path d="M151.891 369.659H117.923V373.757H151.891V369.659Z" fill="black"/>
<path d="M151.891 378.945H117.923V383.043H151.891V378.945Z" fill="black"/>
<path d="M151.891 388.231H117.923V392.329H151.891V388.231Z" fill="black"/>
<path d="M151.891 397.517H117.923V401.615H151.891V397.517Z" fill="black"/>
<path d="M151.891 406.803H117.923V410.901H151.891V406.803Z" fill="black"/>
<path d="M151.891 416.089H117.923V420.187H151.891V416.089Z" fill="black"/>
</g>
<path d="M330.254 235.907H292.331V427.634H330.254V235.907Z" fill="#B9B9B9"/>
<path opacity="0.2" d="M330.254 235.907H292.331V427.634H330.254V235.907Z" fill="black"/>
<path d="M292.331 235.906H332.521V229.623H292.331V235.906Z" fill="#B9B9B9"/>
<path d="M292.331 229.624H326.407V219.815H292.331V229.624Z" fill="#B9B9B9"/>
<path opacity="0.2" d="M292.331 229.624H326.407V219.815H292.331V229.624Z" fill="black"/>
<path d="M292.332 219.815H318.402V198.18H292.332V219.815Z" fill="#B9B9B9"/>
<path opacity="0.3" d="M292.332 219.815H318.402V198.18H292.332V219.815Z" fill="black"/>
<g opacity="0.3">
<path d="M301.111 243.174H295.967V263.34H301.111V243.174Z" fill="black"/>
</g>
<g opacity="0.3">
<path d="M301.111 270.647H295.967V290.813H301.111V270.647Z" fill="black"/>
</g>
<g opacity="0.3">
<path d="M301.111 298.12H295.967V318.286H301.111V298.12Z" fill="black"/>
</g>
<g opacity="0.3">
<path d="M301.111 325.593H295.967V345.759H301.111V325.593Z" fill="black"/>
</g>
<g opacity="0.3">
<path d="M301.111 353.066H295.967V373.232H301.111V353.066Z" fill="black"/>
</g>
<g opacity="0.3">
<path d="M301.111 380.539H295.967V400.705H301.111V380.539Z" fill="black"/>
</g>
<g opacity="0.3">
<path d="M309.613 243.174H304.469V263.34H309.613V243.174Z" fill="black"/>
</g>
<g opacity="0.3">
<path d="M309.613 270.647H304.469V290.813H309.613V270.647Z" fill="black"/>
</g>
<g opacity="0.3">
<path d="M309.613 298.12H304.469V318.286H309.613V298.12Z" fill="black"/>
</g>
<g opacity="0.3">
<path d="M309.613 325.593H304.469V345.759H309.613V325.593Z" fill="black"/>
</g>
<g opacity="0.3">
<path d="M309.613 353.066H304.469V373.232H309.613V353.066Z" fill="black"/>
</g>
<g opacity="0.3">
<path d="M309.613 380.539H304.469V400.705H309.613V380.539Z" fill="black"/>
</g>
<g opacity="0.3">
<path d="M318.116 243.174H312.972V263.34H318.116V243.174Z" fill="black"/>
</g>
<g opacity="0.3">
<path d="M318.116 270.647H312.972V290.813H318.116V270.647Z" fill="black"/>
</g>
<g opacity="0.3">
<path d="M318.116 298.12H312.972V318.286H318.116V298.12Z" fill="black"/>
</g>
<g opacity="0.3">
<path d="M318.116 325.593H312.972V345.759H318.116V325.593Z" fill="black"/>
</g>
<g opacity="0.3">
<path d="M318.116 353.066H312.972V373.232H318.116V353.066Z" fill="black"/>
</g>
<g opacity="0.3">
<path d="M318.116 380.539H312.972V400.705H318.116V380.539Z" fill="black"/>
</g>
<g opacity="0.3">
<path d="M326.618 243.174H321.474V263.34H326.618V243.174Z" fill="black"/>
</g>
<g opacity="0.3">
<path d="M326.618 270.647H321.474V290.813H326.618V270.647Z" fill="black"/>
</g>
<g opacity="0.3">
<path d="M326.618 298.12H321.474V318.286H326.618V298.12Z" fill="black"/>
</g>
<g opacity="0.3">
<path d="M326.618 325.593H321.474V345.759H326.618V325.593Z" fill="black"/>
</g>
<g opacity="0.3">
<path d="M326.618 353.066H321.474V373.232H326.618V353.066Z" fill="black"/>
</g>
<g opacity="0.3">
<path d="M326.618 380.539H321.474V400.705H326.618V380.539Z" fill="black"/>
</g>
<path d="M292.332 235.907H214.598V427.634H292.332V235.907Z" fill="#B9B9B9"/>
<path d="M292.332 219.815H218.321V229.624H292.332V219.815Z" fill="#B9B9B9"/>
<path d="M292.332 198.179H236.641V219.814H292.332V198.179Z" fill="#B9B9B9"/>
<path opacity="0.2" d="M292.332 198.179H236.641V219.814H292.332V198.179Z" fill="black"/>
<path d="M292.333 229.624H212.271V235.907H292.333V229.624Z" fill="#B9B9B9"/>
<path opacity="0.2" d="M292.333 229.624H212.271V235.907H292.333V229.624Z" fill="black"/>
<g opacity="0.3">
<path d="M232.58 243.174H222.029V263.34H232.58V243.174Z" fill="black"/>
</g>
<g opacity="0.3">
<path d="M232.58 270.647H222.029V290.813H232.58V270.647Z" fill="black"/>
</g>
<g opacity="0.3">
<path d="M232.58 298.12H222.029V318.286H232.58V298.12Z" fill="black"/>
</g>
<g opacity="0.3">
<path d="M232.58 325.593H222.029V345.759H232.58V325.593Z" fill="black"/>
</g>
<g opacity="0.3">
<path d="M232.58 353.066H222.029V373.232H232.58V353.066Z" fill="black"/>
</g>
<g opacity="0.3">
<path d="M232.58 380.539H222.029V400.705H232.58V380.539Z" fill="black"/>
</g>
<g opacity="0.3">
<path d="M250.021 243.174H239.47V263.34H250.021V243.174Z" fill="black"/>
</g>
<g opacity="0.3">
<path d="M250.021 270.647H239.47V290.813H250.021V270.647Z" fill="black"/>
</g>
<g opacity="0.3">
<path d="M250.021 298.12H239.47V318.286H250.021V298.12Z" fill="black"/>
</g>
<g opacity="0.3">
<path d="M250.021 325.593H239.47V345.759H250.021V325.593Z" fill="black"/>
</g>
<g opacity="0.3">
<path d="M250.021 353.066H239.47V373.232H250.021V353.066Z" fill="black"/>
</g>
<g opacity="0.3">
<path d="M250.021 380.539H239.47V400.705H250.021V380.539Z" fill="black"/>
</g>
<g opacity="0.3">
<path d="M267.459 243.174H256.908V263.34H267.459V243.174Z" fill="black"/>
</g>
<g opacity="0.3">
<path d="M267.459 270.647H256.908V290.813H267.459V270.647Z" fill="black"/>
</g>
<g opacity="0.3">
<path d="M267.459 298.12H256.908V318.286H267.459V298.12Z" fill="black"/>
</g>
<g opacity="0.3">
<path d="M267.459 325.593H256.908V345.759H267.459V325.593Z" fill="black"/>
</g>
<g opacity="0.3">
<path d="M267.459 353.066H256.908V373.232H267.459V353.066Z" fill="black"/>
</g>
<g opacity="0.3">
<path d="M267.459 380.539H256.908V400.705H267.459V380.539Z" fill="black"/>
</g>
<g opacity="0.3">
<path d="M284.901 243.174H274.349V263.34H284.901V243.174Z" fill="black"/>
</g>
<g opacity="0.3">
<path d="M284.901 270.647H274.349V290.813H284.901V270.647Z" fill="black"/>
</g>
<g opacity="0.3">
<path d="M284.901 298.12H274.349V318.286H284.901V298.12Z" fill="black"/>
</g>
<g opacity="0.3">
<path d="M284.901 325.593H274.349V345.759H284.901V325.593Z" fill="black"/>
</g>
<g opacity="0.3">
<path d="M284.901 353.066H274.349V373.232H284.901V353.066Z" fill="black"/>
</g>
<g opacity="0.3">
<path d="M284.901 380.539H274.349V400.705H284.901V380.539Z" fill="black"/>
</g>
<path opacity="0.3" d="M267.461 408.63H239.47V427.633H267.461V408.63Z" fill="black"/>
<path d="M408.056 318.304H370.133V427.633H408.056V318.304Z" fill="#B9B9B9"/>
<path opacity="0.2" d="M408.056 318.304H370.133V427.633H408.056V318.304Z" fill="black"/>
<path d="M370.134 318.304H410.324V312.021H370.134V318.304Z" fill="#B9B9B9"/>
<path d="M370.134 312.021H404.21V302.212H370.134V312.021Z" fill="#B9B9B9"/>
<path opacity="0.2" d="M370.134 312.021H404.21V302.212H370.134V312.021Z" fill="black"/>
<g opacity="0.3">
<path d="M378.913 325.572H373.769V345.738H378.913V325.572Z" fill="black"/>
</g>
<g opacity="0.3">
<path d="M378.913 353.044H373.769V373.21H378.913V353.044Z" fill="black"/>
</g>
<g opacity="0.3">
<path d="M378.913 380.517H373.769V400.683H378.913V380.517Z" fill="black"/>
</g>
<g opacity="0.3">
<path d="M387.414 325.572H382.271V345.738H387.414V325.572Z" fill="black"/>
</g>
<g opacity="0.3">
<path d="M387.414 353.044H382.271V373.21H387.414V353.044Z" fill="black"/>
</g>
<g opacity="0.3">
<path d="M387.414 380.517H382.271V400.683H387.414V380.517Z" fill="black"/>
</g>
<g opacity="0.3">
<path d="M395.917 325.572H390.773V345.738H395.917V325.572Z" fill="black"/>
</g>
<g opacity="0.3">
<path d="M395.917 353.044H390.773V373.21H395.917V353.044Z" fill="black"/>
</g>
<g opacity="0.3">
<path d="M395.917 380.517H390.773V400.683H395.917V380.517Z" fill="black"/>
</g>
<g opacity="0.3">
<path d="M404.42 325.572H399.276V345.738H404.42V325.572Z" fill="black"/>
</g>
<g opacity="0.3">
<path d="M404.42 353.044H399.276V373.21H404.42V353.044Z" fill="black"/>
</g>
<g opacity="0.3">
<path d="M404.42 380.517H399.276V400.683H404.42V380.517Z" fill="black"/>
</g>
<path d="M370.133 318.304H292.399V427.633H370.133V318.304Z" fill="#B9B9B9"/>
<path d="M370.134 302.212H296.123V312.021H370.134V302.212Z" fill="#B9B9B9"/>
<path d="M370.134 312.021H290.073V318.304H370.134V312.021Z" fill="#B9B9B9"/>
<path opacity="0.2" d="M370.134 312.021H290.073V318.304H370.134V312.021Z" fill="black"/>
<g opacity="0.3">
<path d="M310.382 325.572H299.831V345.738H310.382V325.572Z" fill="black"/>
</g>
<g opacity="0.3">
<path d="M310.382 353.044H299.831V373.21H310.382V353.044Z" fill="black"/>
</g>
<g opacity="0.3">
<path d="M310.382 380.517H299.831V400.683H310.382V380.517Z" fill="black"/>
</g>
<g opacity="0.3">
<path d="M327.823 325.572H317.271V345.738H327.823V325.572Z" fill="black"/>
</g>
<g opacity="0.3">
<path d="M327.823 353.044H317.271V373.21H327.823V353.044Z" fill="black"/>
</g>
<g opacity="0.3">
<path d="M327.823 380.517H317.271V400.683H327.823V380.517Z" fill="black"/>
</g>
<g opacity="0.3">
<path d="M345.262 325.572H334.71V345.738H345.262V325.572Z" fill="black"/>
</g>
<g opacity="0.3">
<path d="M345.262 353.044H334.71V373.21H345.262V353.044Z" fill="black"/>
</g>
<g opacity="0.3">
<path d="M345.262 380.517H334.71V400.683H345.262V380.517Z" fill="black"/>
</g>
<g opacity="0.3">
<path d="M362.702 325.572H352.15V345.738H362.702V325.572Z" fill="black"/>
</g>
<g opacity="0.3">
<path d="M362.702 353.044H352.15V373.21H362.702V353.044Z" fill="black"/>
</g>
<g opacity="0.3">
<path d="M362.702 380.517H352.15V400.683H362.702V380.517Z" fill="black"/>
</g>
<path d="M339.776 163.805C339.26 163.536 338.723 163.317 338.174 163.119C337.618 162.936 337.066 162.754 336.428 162.716C336.265 162.712 336.097 162.708 335.886 162.776C335.836 162.79 335.775 162.823 335.719 162.855C335.675 162.883 335.648 162.906 335.612 162.932C335.541 162.982 335.486 163.034 335.424 163.086C335.19 163.294 334.988 163.509 334.789 163.729C334.395 164.171 334.046 164.631 333.695 165.104L334.129 164.952C333.538 164.787 332.955 164.659 332.346 164.576C332.042 164.539 331.735 164.509 331.415 164.511C331.254 164.513 331.092 164.519 330.919 164.546C330.837 164.553 330.741 164.588 330.653 164.611C330.563 164.64 330.472 164.694 330.386 164.737C330.081 164.938 329.881 165.173 329.682 165.412C329.488 165.653 329.319 165.904 329.155 166.157C328.841 166.67 328.555 167.195 328.325 167.748C328.708 167.289 329.078 166.828 329.471 166.395C329.664 166.177 329.861 165.962 330.07 165.769C330.274 165.579 330.49 165.382 330.697 165.281C330.861 165.202 331.125 165.2 331.395 165.212C331.666 165.227 331.948 165.273 332.227 165.326C332.787 165.426 333.358 165.566 333.907 165.715L334.183 165.79L334.341 165.563C334.661 165.103 335.009 164.649 335.357 164.212C335.53 163.994 335.71 163.778 335.895 163.592C335.941 163.548 335.988 163.498 336.032 163.463L336.096 163.409C336.103 163.407 336.102 163.398 336.122 163.392C336.182 163.36 336.306 163.338 336.428 163.331C336.942 163.312 337.519 163.399 338.076 163.492C338.642 163.582 339.205 163.699 339.776 163.805Z" fill="#E5E5E6"/>
<path d="M333.478 180.82C332.799 180.274 332.074 179.795 331.325 179.345C330.562 178.913 329.804 178.486 328.877 178.244C328.638 178.19 328.393 178.136 328.063 178.174C327.986 178.179 327.886 178.21 327.795 178.241C327.722 178.27 327.676 178.295 327.615 178.323C327.496 178.376 327.4 178.436 327.295 178.494C326.891 178.731 326.53 178.989 326.174 179.253C325.467 179.787 324.819 180.362 324.165 180.955L324.847 180.858C324.027 180.444 323.208 180.086 322.338 179.786C321.901 179.643 321.46 179.509 320.989 179.418C320.752 179.374 320.512 179.335 320.25 179.325C320.128 179.312 319.976 179.334 319.84 179.343C319.7 179.36 319.55 179.412 319.411 179.451C318.905 179.657 318.541 179.943 318.18 180.237C317.825 180.535 317.503 180.853 317.189 181.177C316.577 181.84 316.004 182.527 315.505 183.273C316.201 182.711 316.879 182.141 317.584 181.619C317.931 181.354 318.284 181.096 318.646 180.875C319.001 180.655 319.376 180.428 319.71 180.341C319.973 180.272 320.362 180.347 320.756 180.444C321.15 180.546 321.55 180.695 321.946 180.854C322.739 181.165 323.538 181.536 324.301 181.916L324.684 182.107L324.983 181.82C325.588 181.238 326.232 180.672 326.87 180.131C327.188 179.861 327.515 179.597 327.841 179.377C327.921 179.327 328.005 179.266 328.081 179.228L328.191 179.167C328.202 179.165 328.203 179.153 328.234 179.149C328.331 179.12 328.52 179.123 328.702 179.148C329.462 179.27 330.285 179.566 331.076 179.865C331.877 180.162 332.67 180.499 333.478 180.82Z" fill="#E5E5E6"/>
<path d="M159.228 141.449C158.763 141.099 158.269 140.795 157.76 140.511C157.242 140.239 156.727 139.97 156.103 139.829C155.943 139.798 155.778 139.767 155.558 139.8C155.507 139.805 155.441 139.828 155.381 139.85C155.333 139.871 155.303 139.889 155.263 139.909C155.184 139.947 155.122 139.989 155.053 140.03C154.788 140.196 154.553 140.376 154.321 140.56C153.86 140.932 153.44 141.329 153.017 141.738L153.47 141.659C152.914 141.4 152.36 141.179 151.773 140.997C151.479 140.911 151.182 140.831 150.865 140.78C150.706 140.756 150.545 140.735 150.37 140.734C150.288 140.728 150.187 140.746 150.097 140.754C150.004 140.768 149.905 140.806 149.813 140.835C149.48 140.983 149.243 141.182 149.008 141.386C148.778 141.593 148.569 141.812 148.367 142.035C147.973 142.49 147.605 142.961 147.288 143.469C147.74 143.079 148.181 142.684 148.64 142.321C148.866 142.137 149.096 141.957 149.333 141.801C149.565 141.647 149.81 141.487 150.032 141.422C150.206 141.371 150.467 141.412 150.732 141.468C150.997 141.528 151.267 141.619 151.535 141.716C152.071 141.906 152.612 142.137 153.129 142.374L153.389 142.493L153.582 142.295C153.973 141.894 154.391 141.502 154.805 141.128C155.012 140.941 155.224 140.758 155.437 140.604C155.49 140.569 155.544 140.527 155.594 140.499L155.666 140.456C155.674 140.455 155.674 140.446 155.694 140.443C155.758 140.421 155.884 140.42 156.006 140.433C156.516 140.498 157.071 140.678 157.605 140.861C158.146 141.044 158.682 141.252 159.228 141.449Z" fill="#E5E5E6"/>
<path d="M173.496 139.139C173.01 138.416 172.459 137.744 171.878 137.091C171.278 136.452 170.68 135.819 169.867 135.313C169.655 135.191 169.437 135.066 169.111 135.005C169.035 134.987 168.931 134.987 168.835 134.989C168.757 134.995 168.705 135.005 168.639 135.014C168.509 135.03 168.4 135.059 168.282 135.082C167.826 135.188 167.405 135.327 166.986 135.474C166.152 135.774 165.363 136.131 164.563 136.503L165.243 136.613C164.583 135.974 163.907 135.389 163.165 134.844C162.791 134.578 162.409 134.319 161.986 134.092C161.773 133.979 161.555 133.871 161.308 133.784C161.195 133.735 161.044 133.711 160.911 133.679C160.772 133.654 160.614 133.659 160.469 133.655C159.924 133.702 159.492 133.867 159.06 134.04C158.633 134.219 158.23 134.427 157.835 134.644C157.054 135.095 156.302 135.581 155.605 136.145C156.437 135.815 157.253 135.472 158.082 135.183C158.492 135.033 158.905 134.892 159.317 134.787C159.722 134.682 160.146 134.577 160.491 134.593C160.763 134.606 161.112 134.792 161.459 135.002C161.805 135.216 162.143 135.478 162.474 135.747C163.139 136.279 163.792 136.871 164.408 137.46L164.717 137.756L165.087 137.57C165.838 137.194 166.62 136.844 167.39 136.518C167.774 136.355 168.164 136.199 168.541 136.086C168.632 136.062 168.73 136.029 168.814 136.015L168.937 135.989C168.948 135.991 168.952 135.979 168.983 135.985C169.084 135.986 169.263 136.045 169.43 136.123C170.12 136.465 170.817 136.992 171.484 137.513C172.163 138.035 172.82 138.591 173.496 139.139Z" fill="#E5E5E6"/>
<path d="M353.836 176.643C353.35 175.92 352.799 175.248 352.218 174.595C351.618 173.956 351.02 173.323 350.207 172.817C349.995 172.695 349.777 172.57 349.45 172.509C349.375 172.491 349.27 172.491 349.174 172.493C349.096 172.499 349.045 172.51 348.978 172.518C348.848 172.533 348.739 172.562 348.621 172.586C348.165 172.692 347.744 172.831 347.325 172.978C346.491 173.278 345.702 173.635 344.902 174.007L345.582 174.117C344.922 173.478 344.246 172.893 343.504 172.348C343.129 172.082 342.748 171.823 342.325 171.596C342.112 171.483 341.894 171.375 341.647 171.288C341.534 171.239 341.383 171.215 341.25 171.183C341.111 171.158 340.953 171.163 340.808 171.159C340.264 171.206 339.831 171.371 339.399 171.544C338.972 171.724 338.57 171.932 338.174 172.148C337.393 172.599 336.641 173.085 335.944 173.649C336.776 173.319 337.592 172.976 338.421 172.687C338.831 172.537 339.244 172.396 339.656 172.291C340.061 172.186 340.485 172.081 340.83 172.097C341.102 172.11 341.451 172.296 341.798 172.506C342.144 172.72 342.482 172.982 342.812 173.251C343.477 173.783 344.13 174.375 344.746 174.964L345.055 175.26L345.426 175.074C346.176 174.698 346.959 174.348 347.729 174.022C348.113 173.859 348.503 173.703 348.88 173.59C348.971 173.566 349.069 173.533 349.153 173.519L349.276 173.493C349.288 173.495 349.292 173.483 349.322 173.489C349.423 173.49 349.602 173.549 349.769 173.627C350.459 173.969 351.157 174.496 351.823 175.017C352.503 175.539 353.16 176.096 353.836 176.643Z" fill="#E5E5E6"/>
<path d="M88.9841 427.633C88.9841 427.633 88.1421 423.706 86.4611 423.101C84.7801 422.496 83.7571 424.258 83.7571 424.258C83.7571 424.258 83.3611 420.506 80.9781 419.383C78.5951 418.26 76.8061 420.56 76.8061 420.56C76.8061 420.56 74.9771 415.798 71.7101 415.798C68.4431 415.798 66.7941 422.765 66.7941 422.765C66.7941 422.765 64.8661 420.689 62.8891 421.861C60.9121 423.034 60.9121 427.633 60.9121 427.633H88.9841Z" fill="#9DA2A4"/>
<path d="M367.828 427.633C367.828 427.633 366.986 423.706 365.305 423.101C363.624 422.496 362.601 424.258 362.601 424.258C362.601 424.258 362.205 420.506 359.821 419.383C357.438 418.26 355.649 420.56 355.649 420.56C355.649 420.56 353.82 415.798 350.552 415.798C347.285 415.798 345.636 422.765 345.636 422.765C345.636 422.765 343.708 420.689 341.731 421.861C339.754 423.034 339.754 427.633 339.754 427.633H367.828Z" fill="#B0B7BA"/>
<path d="M163.263 427.633H133.716C133.716 427.633 134.689 423.467 136.649 423.173C138.608 422.878 139.52 424.81 139.52 424.81C139.52 424.81 139.431 419 143.091 418.01C146.75 417.02 149.819 422.153 149.819 422.153C149.819 422.153 152.114 419.226 155.24 419.413C158.366 419.601 159.161 424.436 159.161 424.436C159.161 424.436 162.006 422.759 163.263 427.633Z" fill="#9DA2A4"/>
<path d="M62.7259 427.633H47.1709C47.1709 427.633 47.2069 425.318 48.7359 424.704C50.2649 424.09 51.1739 425.288 51.1739 425.288C51.1739 425.288 51.7979 421.031 54.6469 421.031C57.4969 421.031 58.8599 424.703 58.8599 424.703C58.8599 424.703 59.4979 423.593 61.0799 423.799C62.6629 424.007 62.7259 427.633 62.7259 427.633Z" fill="#B0B7BA"/>
<path d="M175.468 427.633H159.913C159.913 427.633 159.949 425.318 161.478 424.704C163.007 424.09 163.916 425.288 163.916 425.288C163.916 425.288 164.54 421.031 167.389 421.031C170.239 421.031 171.603 424.703 171.603 424.703C171.603 424.703 172.241 423.593 173.823 423.799C175.405 424.005 175.468 427.633 175.468 427.633Z" fill="#B0B7BA"/>
<path d="M431.265 427.633H415.71C415.71 427.633 415.746 425.318 417.275 424.704C418.804 424.09 419.713 425.288 419.713 425.288C419.713 425.288 420.337 421.031 423.186 421.031C426.036 421.031 427.4 424.703 427.4 424.703C427.4 424.703 428.038 423.593 429.62 423.799C431.202 424.007 431.265 427.633 431.265 427.633Z" fill="#B0B7BA"/>
<path d="M453.957 427.633H428.316C428.316 427.633 428.375 423.817 430.896 422.804C433.416 421.792 434.915 423.767 434.915 423.767C434.915 423.767 435.943 416.75 440.64 416.75C445.337 416.75 447.585 422.804 447.585 422.804C447.585 422.804 448.637 420.974 451.245 421.315C453.853 421.656 453.957 427.633 453.957 427.633Z" fill="#9DA2A4"/>
<path d="M459.201 427.633H41.9268V434.902H459.201V427.633Z" fill="#C7C7C7"/>
<path d="M71.1806 427.633C71.5716 428.845 71.6596 430.056 71.6766 431.268C71.6616 432.479 71.5746 433.691 71.1806 434.902C70.7876 433.69 70.6996 432.479 70.6846 431.268C70.7016 430.056 70.7896 428.845 71.1806 427.633Z" fill="#E5E5E6"/>
<path d="M103.796 427.633C104.187 428.845 104.275 430.056 104.292 431.268C104.277 432.479 104.19 433.691 103.796 434.902C103.402 433.69 103.315 432.479 103.3 431.268C103.317 430.056 103.405 428.845 103.796 427.633Z" fill="#E5E5E6"/>
<path d="M136.411 427.633C136.802 428.845 136.89 430.056 136.907 431.268C136.892 432.479 136.804 433.691 136.411 434.902C136.017 433.69 135.929 432.479 135.915 431.268C135.932 430.056 136.02 428.845 136.411 427.633Z" fill="#E5E5E6"/>
<path d="M169.025 427.633C169.416 428.845 169.504 430.056 169.521 431.268C169.506 432.479 169.419 433.691 169.025 434.902C168.632 433.69 168.544 432.479 168.529 431.268C168.546 430.056 168.634 428.845 169.025 427.633Z" fill="#E5E5E6"/>
<path d="M201.641 427.633C202.032 428.845 202.12 430.056 202.137 431.268C202.123 432.479 202.035 433.691 201.641 434.902C201.248 433.69 201.16 432.479 201.145 431.268C201.162 430.056 201.25 428.845 201.641 427.633Z" fill="#E5E5E6"/>
<path d="M234.256 427.633C234.647 428.845 234.735 430.056 234.752 431.268C234.738 432.479 234.65 433.691 234.256 434.902C233.863 433.69 233.775 432.479 233.76 431.268C233.777 430.056 233.865 428.845 234.256 427.633Z" fill="#E5E5E6"/>
<path d="M266.871 427.633C267.262 428.845 267.35 430.056 267.367 431.268C267.353 432.479 267.264 433.691 266.871 434.902C266.478 433.69 266.39 432.479 266.375 431.268C266.392 430.056 266.48 428.845 266.871 427.633Z" fill="#E5E5E6"/>
<path d="M299.485 427.633C299.876 428.845 299.964 430.056 299.981 431.268C299.967 432.479 299.878 433.691 299.485 434.902C299.092 433.69 299.004 432.479 298.989 431.268C299.006 430.056 299.094 428.845 299.485 427.633Z" fill="#E5E5E6"/>
<path d="M332.101 427.633C332.492 428.845 332.58 430.056 332.597 431.268C332.583 432.479 332.495 433.691 332.101 434.902C331.707 433.69 331.619 432.479 331.605 431.268C331.621 430.056 331.709 428.845 332.101 427.633Z" fill="#E5E5E6"/>
<path d="M364.717 427.633C365.109 428.845 365.196 430.056 365.213 431.268C365.199 432.479 365.11 433.691 364.717 434.902C364.324 433.69 364.236 432.479 364.221 431.268C364.237 430.056 364.325 428.845 364.717 427.633Z" fill="#E5E5E6"/>
<path d="M397.332 427.633C397.724 428.845 397.811 430.056 397.828 431.268C397.814 432.479 397.726 433.691 397.332 434.902C396.939 433.69 396.851 432.479 396.836 431.268C396.853 430.056 396.94 428.845 397.332 427.633Z" fill="#E5E5E6"/>
<path d="M429.946 427.633C430.337 428.845 430.425 430.056 430.442 431.268C430.427 432.479 430.34 433.691 429.946 434.902C429.552 433.69 429.464 432.479 429.45 431.268C429.467 430.056 429.554 428.845 429.946 427.633Z" fill="#E5E5E6"/>
<path d="M45.0176 434.902L96.4036 434.659L147.791 434.571L250.564 434.404L353.337 434.57L404.723 434.658L456.11 434.902L404.723 435.147L353.337 435.235L250.564 435.401L147.791 435.234L96.4036 435.146L45.0176 434.902Z" fill="#E5E5E6"/>
<path opacity="0.1" d="M295.013 128.7C307.263 116.449 307.263 96.5878 295.013 84.3375C282.763 72.0873 262.901 72.0873 250.651 84.3375C238.401 96.5878 238.401 116.449 250.651 128.7C262.901 140.95 282.763 140.95 295.013 128.7Z" fill="#B9B9B9"/>
<path d="M272.835 126.248C283.732 126.248 292.566 117.414 292.566 106.517C292.566 95.62 283.732 86.7861 272.835 86.7861C261.937 86.7861 253.104 95.62 253.104 106.517C253.104 117.414 261.937 126.248 272.835 126.248Z" fill="#B9B9B9"/>
</svg>
