<svg width="24" height="24" viewBox="0 0 24 24" fill="none" xmlns="http://www.w3.org/2000/svg">
<g clip-path="url(#clip0_9070_39840)">
<path d="M2.76762 18.719C1.96566 18.719 1.18217 18.5144 0.472108 18.1156C0.106769 17.9275 -0.0347327 17.4568 0.18352 17.1027C0.908672 15.9439 1.17053 14.5275 0.838515 13.1954C0.494384 11.8144 -0.00354525 10.6513 1.90289e-05 9.18939C0.0123752 4.06033 4.28149 -0.0977534 9.40531 0.00174936C14.3543 0.10143 18.433 4.26165 18.433 9.21196C18.4331 15.6771 11.6575 20.2162 5.67589 17.7197C4.85142 18.3668 3.8151 18.719 2.76762 18.719ZM1.79315 17.1405C2.91993 17.4905 4.18721 17.2109 5.05612 16.3709C5.27022 16.1638 5.59047 16.1117 5.8591 16.2402C10.9802 18.6887 17.0073 14.8509 17.0073 9.21196C17.0073 5.00409 13.5841 1.51187 9.37662 1.42716C5.04056 1.34103 1.43619 4.85279 1.42573 9.19283C1.42234 10.5814 1.96411 11.6912 2.26019 13.0065C2.57212 14.3928 2.40781 15.8586 1.79315 17.1405Z" fill="white"/>
<path d="M21.2323 23.9998C20.1849 23.9998 19.1486 23.6475 18.3242 23.0004C15.1431 24.3281 11.3591 23.7235 8.75084 21.471C8.45287 21.2136 8.41996 20.7635 8.67724 20.4655C8.93458 20.1676 9.38469 20.1345 9.68266 20.3919C11.996 22.3897 15.3839 22.8391 18.1409 21.521C18.4095 21.3925 18.7297 21.4446 18.9439 21.6517C19.8128 22.4916 21.0801 22.7714 22.2069 22.4213C21.4818 20.9089 21.3813 19.1762 21.9432 17.5722C21.9483 17.5577 21.9538 17.5435 21.9598 17.5294C22.3701 16.562 22.5769 15.5338 22.5744 14.4736C22.5698 12.6042 21.948 10.875 20.7759 9.47277C20.5235 9.17064 20.5637 8.72112 20.8658 8.46865C21.1678 8.21613 21.6174 8.2564 21.8699 8.55847C23.2383 10.1957 23.9948 12.2951 24.0001 14.4701C24.0031 15.7159 23.7614 16.9249 23.2817 18.064C22.7778 19.5226 23.0096 21.0843 23.8164 22.3833C24.0349 22.7375 23.8933 23.2082 23.5278 23.3965C22.8179 23.795 22.0342 23.9997 21.2323 23.9998Z" fill="white"/>
<path d="M9.21782 10.3739C9.84078 10.3739 10.3458 9.86916 10.3458 9.24652C10.3458 8.62389 9.84078 8.11914 9.21782 8.11914C8.59485 8.11914 8.08984 8.62389 8.08984 9.24652C8.08984 9.86916 8.59485 10.3739 9.21782 10.3739Z" fill="white"/>
<path d="M5.06157 10.3739C5.68453 10.3739 6.18954 9.86916 6.18954 9.24652C6.18954 8.62389 5.68453 8.11914 5.06157 8.11914C4.43861 8.11914 3.93359 8.62389 3.93359 9.24652C3.93359 9.86916 4.43861 10.3739 5.06157 10.3739Z" fill="white"/>
<path d="M13.3721 10.3739C13.9951 10.3739 14.5001 9.86916 14.5001 9.24652C14.5001 8.62389 13.9951 8.11914 13.3721 8.11914C12.7492 8.11914 12.2441 8.62389 12.2441 9.24652C12.2441 9.86916 12.7492 10.3739 13.3721 10.3739Z" fill="white"/>
</g>
<defs>
<clipPath id="clip0_9070_39840">
<rect width="24" height="24" fill="white"/>
</clipPath>
</defs>
</svg>
