<svg width="24" height="24" viewBox="0 0 24 24" fill="none" xmlns="http://www.w3.org/2000/svg">
<g clip-path="url(#clip0_6055_10754)">
<path d="M21.8906 18.4748V18.375C21.8906 15.4938 19.2194 14.0807 16.9033 12.8338C14.7438 11.6706 12.7031 10.572 12.7031 8.53125C12.7031 8.3025 12.7031 2.29913 12.7031 2.69166L14.8125 4.80103L15.8068 3.80677L12 0L8.19323 3.80677L9.1875 4.80103L11.2969 2.69166C11.2969 2.90461 11.2969 8.67286 11.2969 8.53125C11.2969 10.572 9.25617 11.6706 7.09669 12.8338C4.78059 14.0807 2.10938 15.4938 2.10938 18.375V18.4748C0.899672 18.7892 0 19.8806 0 21.1875C0 22.7386 1.26136 24 2.8125 24C4.36364 24 5.625 22.7386 5.625 21.1875C5.625 19.8806 4.72533 18.7892 3.51562 18.4748V18.375C3.51562 16.3343 5.6032 15.2356 7.76269 14.0725C9.00905 13.4013 10.3288 12.6711 11.2969 11.7008V18.4748C10.0872 18.7892 9.1875 19.8806 9.1875 21.1875C9.1875 22.7386 10.4489 24 12 24C13.5511 24 14.8125 22.7386 14.8125 21.1875C14.8125 19.8806 13.9128 18.7892 12.7031 18.4748V11.7008C13.6712 12.6711 14.991 13.4013 16.2373 14.0725C18.3968 15.2356 20.4844 16.3343 20.4844 18.375V18.4748C19.2747 18.7892 18.375 19.8806 18.375 21.1875C18.375 22.7386 19.6364 24 21.1875 24C22.7386 24 24 22.7386 24 21.1875C24 19.8806 23.1003 18.7892 21.8906 18.4748Z" fill="#0B7AB2"/>
</g>
<defs>
<clipPath id="clip0_6055_10754">
<rect width="24" height="24" fill="white"/>
</clipPath>
</defs>
</svg>
