<svg width="26" height="27" viewBox="0 0 26 27" fill="none" xmlns="http://www.w3.org/2000/svg">
<path d="M10.3259 14.573H12.4664V16.7137C12.4664 17.1826 12.7424 17.635 13.1896 17.7772C13.9313 18.0126 14.6139 17.4658 14.6139 16.7591V14.573H16.7549C17.2243 14.573 17.6767 14.2965 17.8185 13.8488C18.0534 13.1073 17.506 12.4257 16.7997 12.4257H14.6139V10.2854C14.6139 9.81609 14.3378 9.36375 13.8906 9.22147C13.1494 8.98609 12.4664 9.53296 12.4664 10.2396V12.4257H10.2805C9.57475 12.4257 9.02734 13.1073 9.26227 13.8488C9.40361 14.2965 9.85648 14.573 10.3259 14.573Z" fill="#54656F"/>
<path fill-rule="evenodd" clip-rule="evenodd" d="M1.02318 6.48734L3.25017 10.0865V19.2784C3.25017 20.8739 4.54357 22.1673 6.13906 22.1673H20.9446C22.5401 22.1673 23.8335 20.8739 23.8335 19.2784V7.72288C23.8335 6.12739 22.5401 4.83398 20.9446 4.83398H1.94443C1.09573 4.83398 0.576623 5.76562 1.02318 6.48734ZM5.41684 9.4704V19.2784C5.41684 19.6773 5.74018 20.0007 6.13906 20.0007H20.9446C21.3435 20.0007 21.6669 19.6773 21.6669 19.2784V7.72288C21.6669 7.324 21.3435 7.00065 20.9446 7.00065H3.88868L5.41684 9.4704Z" fill="#54656F"/>
</svg>
