<svg width="25" height="24" viewBox="0 0 25 24" fill="none" xmlns="http://www.w3.org/2000/svg">
<g clip-path="url(#clip0_9070_39935)">
<path fill-rule="evenodd" clip-rule="evenodd" d="M15.3651 13.403C14.9109 13.5886 14.6208 14.2997 14.3264 14.663C14.1754 14.8491 13.9954 14.8781 13.7634 14.7848C12.0586 14.1056 10.7517 12.968 9.81091 11.3991C9.65153 11.1558 9.68013 10.9636 9.87231 10.7377C10.1564 10.403 10.5136 10.0228 10.5904 9.57187C10.7611 8.57438 9.457 5.48016 7.73481 6.88219C2.77919 10.9205 16.0017 21.6309 18.3881 15.8381C19.0631 14.1961 16.1179 13.0945 15.3651 13.403ZM12.5001 21.9037C10.7475 21.9037 9.02294 21.4378 7.51309 20.5556C7.27075 20.4136 6.97778 20.3761 6.70684 20.4497L3.42606 21.3502L4.56888 18.8325C4.7245 18.4898 4.68466 18.0909 4.46481 17.7863C3.24231 16.0917 2.59591 14.0911 2.59591 12C2.59591 6.53859 7.03872 2.09578 12.5001 2.09578C17.9615 2.09578 22.4039 6.53859 22.4039 12C22.4039 17.4609 17.9611 21.9037 12.5001 21.9037ZM12.5001 0C5.88325 0 0.500125 5.38312 0.500125 12C0.500125 14.3278 1.16106 16.5633 2.41684 18.5034L0.593875 22.5183C0.425594 22.8891 0.487 23.3231 0.750438 23.632C0.952938 23.8687 1.24591 24 1.54825 24C2.22419 24 5.90997 22.8417 6.84794 22.5844C8.58184 23.512 10.5267 24 12.5001 24C19.1165 24 24.5001 18.6164 24.5001 12C24.5001 5.38312 19.1165 0 12.5001 0Z" fill="white"/>
</g>
<defs>
<clipPath id="clip0_9070_39935">
<rect width="24" height="24" fill="white" transform="translate(0.5)"/>
</clipPath>
</defs>
</svg>
